<svg width="70" height="71" viewBox="0 0 70 71" fill="none" xmlns="http://www.w3.org/2000/svg">
<circle cx="35" cy="35.3389" r="35" fill="white"/>
<path d="M51.02 42.0989C48.56 42.0989 46.18 41.6989 43.96 40.9789C43.6122 40.861 43.2382 40.8435 42.881 40.9284C42.5237 41.0133 42.1976 41.1971 41.94 41.4589L38.8 45.3989C33.14 42.6989 27.84 37.5989 25.02 31.7389L28.92 28.4189C29.46 27.8589 29.62 27.0789 29.4 26.3789C28.66 24.1589 28.28 21.7789 28.28 19.3189C28.28 18.2389 27.38 17.3389 26.3 17.3389H19.38C18.3 17.3389 17 17.8189 17 19.3189C17 37.8989 32.46 53.3389 51.02 53.3389C52.44 53.3389 53 52.0789 53 50.9789V44.0789C53 42.9989 52.1 42.0989 51.02 42.0989Z" fill="#0160E7"/>
</svg>
