<svg width="67" height="65" viewBox="0 0 67 65" fill="none" xmlns="http://www.w3.org/2000/svg">
<g filter="url(#filter0_dddd_223_1383)">
<circle cx="40.5" cy="26" r="25" fill="#0160E7"/>
</g>
<path d="M31.6936 40.985C31.2792 40.7723 31.1465 40.5535 31.2394 40.2418C31.3292 39.9706 31.6168 39.7931 31.929 39.8163C32.5723 39.8163 33.2188 39.8163 33.872 39.8163C33.8811 39.5867 33.9033 39.3577 33.9383 39.1301C34.0817 38.328 34.8274 37.7265 35.7255 37.6887C36.2427 37.6557 36.7632 37.6887 37.2805 37.6677C37.3843 37.6567 37.4782 37.6067 37.5391 37.5299C37.5942 37.4241 37.6289 37.3106 37.6419 37.1942C37.8508 36.4001 38.0597 35.603 38.2752 34.7669H28.3282C26.9357 34.7669 25.9012 34.0777 25.5995 32.945C25.5377 32.7255 25.5043 32.5002 25.5 32.2737C25.5 27.3192 25.5 22.3638 25.5 17.4073C25.5 16.1637 26.2991 15.2137 27.5656 14.974C27.83 14.9284 28.099 14.9083 28.368 14.9141C34.0157 14.9141 39.6611 14.9141 45.3044 14.9141C45.5388 14.9315 45.7624 14.8222 45.8746 14.6354C46.5079 13.7633 47.1313 12.8853 47.811 12.0403C48.3978 11.2613 49.438 10.8688 50.4635 11.0394C51.5585 11.1547 52.4678 11.8568 52.7646 12.8164C52.981 13.4059 52.9455 14.0473 52.6651 14.6144C52.6253 14.7013 52.5789 14.7882 52.5159 14.9141H52.9867C54.2944 14.9536 55.3634 15.8696 55.4768 17.0477C55.4928 17.184 55.5006 17.3211 55.5 17.4582C55.5 22.3728 55.5 27.2893 55.5 32.2078C55.5 33.4724 54.744 34.4073 53.4907 34.677C53.1953 34.7329 52.8939 34.759 52.5921 34.755H42.7414C42.8044 35.0127 42.8541 35.2464 42.9171 35.4772C43.0729 36.1244 43.2586 36.7537 43.4045 37.389C43.4575 37.6228 43.567 37.6887 43.8156 37.6887C44.1903 37.6707 44.5716 37.6887 44.9496 37.6887C46.2758 37.6887 47.0882 38.4019 47.1014 39.6066V39.8283H48.9748C49.4257 39.8283 49.681 39.9691 49.7639 40.2538C49.8468 40.5385 49.7208 40.7872 49.3097 41L31.6936 40.985ZM44.7971 16.0888H28.3117C27.317 16.0888 26.7964 16.5472 26.7964 17.4552V28.4799C27.4198 28.4799 28 28.4799 28.5836 28.4799C28.8505 28.4222 29.1292 28.519 29.2846 28.7234C29.44 28.9279 29.44 29.1977 29.2846 29.4022C29.1292 29.6066 28.8505 29.7034 28.5836 29.6457H26.8263C26.8263 29.7595 26.803 29.8374 26.803 29.9124C26.803 30.7035 26.803 31.4916 26.803 32.2827C26.764 32.6413 26.9055 32.9968 27.1883 33.2507C27.4712 33.5046 27.8654 33.63 28.2619 33.5923H52.7347C53.6664 33.5923 54.2002 33.1038 54.2035 32.2617C54.2035 31.5216 54.2035 30.7634 54.2035 30.0382C54.2035 29.6457 54.2035 29.6457 53.7659 29.6457H34.1804C34.0401 29.6532 33.8995 29.6532 33.7593 29.6457C33.4438 29.6212 33.1969 29.3899 33.181 29.1041C33.1651 28.8183 33.3851 28.5659 33.6963 28.5129C33.8553 28.4904 34.0162 28.4814 34.177 28.4859H54.2069V28.1473C54.2069 24.5873 54.2069 21.0273 54.2069 17.4672C54.2135 17.3604 54.2135 17.2534 54.2069 17.1466C54.1459 16.5565 53.6026 16.1029 52.9469 16.0947C52.5921 16.0947 52.2341 16.0947 51.8793 16.0947C51.62 16.0663 51.3646 16.1702 51.2161 16.3644C49.408 18.3622 47.5944 20.36 45.7752 22.3578C45.6005 22.504 45.5381 22.7298 45.616 22.9331C45.6834 23.1519 45.7201 23.3774 45.7254 23.6044C45.8697 25.1166 44.6414 26.4524 42.9701 26.601C42.3561 26.6325 41.7406 26.6325 41.1266 26.601C40.3214 26.5484 39.5263 26.789 38.9184 27.2693C38.7528 27.4185 38.5094 27.4726 38.2862 27.4097C38.063 27.3469 37.8966 27.1774 37.8541 26.9696C37.5585 26.0719 37.4078 25.1403 37.4065 24.2037C37.4529 21.7884 38.9814 20.3081 41.6041 20.1552C41.7368 20.1378 41.8562 20.0731 41.9357 19.9754C42.3501 19.439 42.7447 18.8936 43.1459 18.3512C43.6764 17.6111 44.2135 16.8799 44.7971 16.0888ZM44.9761 17.9557L46.9124 19.2502L47.5258 18.573C48.746 17.2335 49.9595 15.891 51.173 14.5515C51.5567 14.1792 51.6897 13.6494 51.5212 13.164C51.3411 12.6595 50.858 12.2923 50.2772 12.2183C49.6964 12.1443 49.1198 12.3766 48.7924 12.8164C48.0829 13.7574 47.3866 14.7073 46.6837 15.6542C46.12 16.4124 45.5597 17.1706 44.9761 17.9557ZM38.8687 25.765C39.4015 25.6339 39.9431 25.5338 40.49 25.4653C41.13 25.4144 41.7798 25.4653 42.4264 25.4653C42.9267 25.4964 43.4209 25.3514 43.8057 25.0608C44.4173 24.5114 44.5995 23.6819 44.2666 22.9631C44.2217 22.8869 44.1554 22.8228 44.0742 22.7773C43.4067 22.3298 42.7414 21.8803 42.0782 21.4288C42.005 21.3733 41.917 21.3361 41.8229 21.3209C40.638 21.2346 39.5189 21.824 39.0179 22.7983C38.567 23.7872 38.6731 24.803 38.8687 25.765ZM45.7884 39.8043C45.8581 39.0642 45.6392 38.8454 44.87 38.8454H36.0703C35.3508 38.8454 35.0756 39.1451 35.2347 39.8043H45.7884ZM38.8521 37.6497H42.1479L41.3919 34.7789H39.6081L38.8521 37.6497ZM44.6777 21.7105L46.0868 20.1582L44.2566 18.9326L43.0199 20.6077L44.6777 21.7105Z" fill="white"/>
<path d="M31.2264 29.6457C31.0576 29.6441 30.8964 29.582 30.7782 29.4729C30.6601 29.3639 30.5947 29.2169 30.5965 29.0643C30.5848 28.8462 30.7087 28.6405 30.9177 28.5309C31.1266 28.4213 31.3858 28.4261 31.5895 28.5434C31.7933 28.6606 31.9078 28.8708 31.8862 29.0883C31.8811 29.2415 31.8085 29.3864 31.6846 29.491C31.5608 29.5957 31.3958 29.6513 31.2264 29.6457Z" fill="white"/>
<defs>
<filter id="filter0_dddd_223_1383" x="0.5" y="0" width="66" height="65" filterUnits="userSpaceOnUse" color-interpolation-filters="sRGB">
<feFlood flood-opacity="0" result="BackgroundImageFix"/>
<feColorMatrix in="SourceAlpha" type="matrix" values="0 0 0 0 0 0 0 0 0 0 0 0 0 0 0 0 0 0 127 0" result="hardAlpha"/>
<feOffset dx="-1" dy="1"/>
<feGaussianBlur stdDeviation="1"/>
<feColorMatrix type="matrix" values="0 0 0 0 0 0 0 0 0 0 0 0 0 0 0 0 0 0 0.1 0"/>
<feBlend mode="normal" in2="BackgroundImageFix" result="effect1_dropShadow_223_1383"/>
<feColorMatrix in="SourceAlpha" type="matrix" values="0 0 0 0 0 0 0 0 0 0 0 0 0 0 0 0 0 0 127 0" result="hardAlpha"/>
<feOffset dx="-2" dy="2"/>
<feGaussianBlur stdDeviation="1.5"/>
<feColorMatrix type="matrix" values="0 0 0 0 0 0 0 0 0 0 0 0 0 0 0 0 0 0 0.09 0"/>
<feBlend mode="normal" in2="effect1_dropShadow_223_1383" result="effect2_dropShadow_223_1383"/>
<feColorMatrix in="SourceAlpha" type="matrix" values="0 0 0 0 0 0 0 0 0 0 0 0 0 0 0 0 0 0 127 0" result="hardAlpha"/>
<feOffset dx="-5" dy="5"/>
<feGaussianBlur stdDeviation="2"/>
<feColorMatrix type="matrix" values="0 0 0 0 0 0 0 0 0 0 0 0 0 0 0 0 0 0 0.05 0"/>
<feBlend mode="normal" in2="effect2_dropShadow_223_1383" result="effect3_dropShadow_223_1383"/>
<feColorMatrix in="SourceAlpha" type="matrix" values="0 0 0 0 0 0 0 0 0 0 0 0 0 0 0 0 0 0 127 0" result="hardAlpha"/>
<feOffset dx="-10" dy="9"/>
<feGaussianBlur stdDeviation="2.5"/>
<feColorMatrix type="matrix" values="0 0 0 0 0 0 0 0 0 0 0 0 0 0 0 0 0 0 0.01 0"/>
<feBlend mode="normal" in2="effect3_dropShadow_223_1383" result="effect4_dropShadow_223_1383"/>
<feBlend mode="normal" in="SourceGraphic" in2="effect4_dropShadow_223_1383" result="shape"/>
</filter>
</defs>
</svg>
