<svg width="24" height="24" viewBox="0 0 24 24" fill="none" xmlns="http://www.w3.org/2000/svg">
<path d="M22.68 16.2203C21.04 16.2203 19.4533 15.9706 17.9733 15.5211C17.7415 15.4475 17.4922 15.4366 17.254 15.4896C17.0158 15.5426 16.7984 15.6574 16.6267 15.8208L14.5333 18.2806C10.76 16.5949 7.22667 13.4109 5.34667 9.75245L7.94667 7.67973C8.30667 7.33011 8.41333 6.84315 8.26667 6.40613C7.77333 5.02015 7.52 3.53428 7.52 1.99847C7.52 1.32421 6.92 0.762329 6.2 0.762329H1.58667C0.866667 0.762329 0 1.062 0 1.99847C0 13.5982 10.3067 23.2376 22.68 23.2376C23.6267 23.2376 24 22.451 24 21.7642V17.4565C24 16.7822 23.4 16.2203 22.68 16.2203Z" fill="#0160E7"/>
</svg>
