<svg width="67" height="65" viewBox="0 0 67 65" fill="none" xmlns="http://www.w3.org/2000/svg">
<g filter="url(#filter0_dddd_223_1397)">
<circle cx="40.5" cy="26" r="25" fill="#0160E7"/>
</g>
<path d="M55.0816 11C55.3753 11.1671 55.5379 11.4959 55.4925 11.8307C55.4925 12.8532 55.4925 13.8788 55.4925 14.8984C55.4925 15.4322 55.2855 15.6511 54.7546 15.6541C53.7019 15.6541 52.6552 15.6541 51.5934 15.6541C51.0416 15.6541 50.8466 15.4442 50.8406 14.8834C50.8406 14.5835 50.8406 14.2627 50.8406 13.9328H46.0838C50.7656 16.3528 53.303 20.1642 53.7649 25.4091H54.7576C55.2765 25.4091 55.4895 25.622 55.4895 26.1408C55.4895 27.2023 55.4895 28.2659 55.4895 29.3315C55.4895 29.8442 55.2765 30.0632 54.7606 30.0662C53.6959 30.0662 52.6342 30.0662 51.5694 30.0662C51.0506 30.0662 50.8406 29.8532 50.8406 29.3345C50.8406 28.2699 50.8406 27.2083 50.8406 26.1438C50.8406 25.61 51.0566 25.4091 51.5964 25.4091H52.5622C52.2694 19.8725 48.2653 15.2362 42.8296 14.1397C42.8296 14.4396 42.8296 14.7005 42.8296 14.9644C42.8296 15.4232 42.6047 15.6541 42.1458 15.6571C41.0441 15.6571 39.9444 15.6571 38.8466 15.6571C38.661 15.6813 38.4747 15.6176 38.3428 15.4846C38.211 15.3516 38.1489 15.1648 38.1748 14.9794C38.1748 14.8444 38.1748 14.7065 38.1748 14.5685V14.1457C35.8602 14.5808 33.7308 15.7044 32.0653 17.3694C29.8785 19.4922 28.5783 22.3653 28.4273 25.4091H29.438C29.9239 25.4091 30.1458 25.619 30.1518 26.0988C30.1518 27.1903 30.1518 28.2849 30.1518 29.3764C30.1818 29.5656 30.1197 29.7578 29.9845 29.8936C29.8493 30.0293 29.6574 30.0923 29.468 30.0632C28.3733 30.0632 27.2816 30.0632 26.1868 30.0632C25.8892 30.0772 25.6146 29.9034 25.5 29.6283V25.8199C25.6559 25.515 25.9891 25.3437 26.3278 25.3941C26.6277 25.4151 26.9276 25.3941 27.2276 25.3941C27.6865 20.1582 30.2268 16.3408 34.9116 13.9208H30.1548C30.1548 14.2507 30.1548 14.5595 30.1548 14.8714C30.1548 15.4442 29.9569 15.6421 29.381 15.6451C28.3463 15.6451 27.3115 15.6451 26.2798 15.6451C25.9536 15.6905 25.6363 15.5161 25.5 15.2163V11H29.7169C30.0232 11.1301 30.2032 11.4505 30.1548 11.7797C30.1548 12.0796 30.1548 12.4124 30.1548 12.7243H38.1628C38.1628 12.3974 38.1628 12.0975 38.1628 11.7947C38.1123 11.4553 38.3025 11.126 38.6217 11H42.3708C42.6907 11.1251 42.8813 11.4551 42.8296 11.7947C42.8296 12.0945 42.8296 12.4124 42.8296 12.7273H50.8376C50.8376 12.3974 50.8376 12.0886 50.8376 11.7797C50.7889 11.4512 50.9674 11.1311 51.2725 11H55.0816ZM41.6419 12.1995H39.3565V14.4786H41.6419V12.1995ZM28.9581 14.4696V12.1995H26.6997V14.4816L28.9581 14.4696ZM52.0253 12.1815V14.4696H54.2928V12.1815H52.0253ZM26.6997 26.5936V28.8696H28.9731V26.5936H26.6997ZM54.2928 28.8756V26.5936H52.0253V28.8756H54.2928Z" fill="white"/>
<path d="M43.7358 32.2043H44.2127C45.0018 32.1832 45.7085 32.6898 45.9417 33.4439C46.175 34.1979 45.8777 35.015 45.2144 35.443C45.1215 35.53 45.0684 35.6515 45.0675 35.7788C45.0675 37.2422 45.0675 38.7056 45.0675 40.169C45.0737 40.2689 45.0737 40.369 45.0675 40.4689C45.0373 40.7642 44.7885 40.9888 44.4916 40.9888C44.1947 40.9888 43.9459 40.7642 43.9158 40.4689C43.9079 40.3691 43.9079 40.2688 43.9158 40.169C43.9158 38.8046 43.9158 37.4371 43.9158 36.0697V35.7368H37.0955V40.163C37.1017 40.2629 37.1017 40.363 37.0955 40.4629C37.0736 40.7656 36.8217 41 36.5181 41C36.2146 41 35.9626 40.7656 35.9408 40.4629C35.9344 40.363 35.9344 40.2629 35.9408 40.163C35.9408 38.7096 35.9408 37.2552 35.9408 35.7998C35.9597 35.6457 35.8839 35.4954 35.7488 35.419C35.1348 35.0137 34.8477 34.2621 35.035 33.5507C35.2099 32.8145 35.8401 32.2753 36.5946 32.2163C36.8045 32.1983 37.0205 32.2163 37.2604 32.2163C37.0369 31.1349 36.5872 30.1129 35.9408 29.2175C35.6018 28.7765 35.2394 28.3541 34.855 27.952C34.5401 27.6072 34.5011 27.4213 34.7201 27.0134C34.984 26.5366 35.2449 26.0568 35.5149 25.58C35.6195 25.3486 35.8627 25.2124 36.1147 25.2441C36.3485 25.2479 36.5481 25.4139 36.5946 25.643C36.6177 25.8233 36.5885 26.0065 36.5106 26.1708C36.3566 26.4883 36.1844 26.7967 35.9948 27.0944C35.9489 27.1549 35.9295 27.2314 35.9407 27.3064C35.952 27.3815 35.9931 27.4488 36.0547 27.4932C37.0829 28.5835 37.8356 29.9036 38.2502 31.3436C38.3282 31.6165 38.3881 31.8924 38.4601 32.1833H42.4431C42.7431 31.3766 43.004 30.582 43.3429 29.8173C43.7329 28.9549 44.272 28.1682 44.9355 27.4932C45.0552 27.4047 45.0819 27.2366 44.9955 27.1154C43.7238 24.8203 42.4561 22.5213 41.1924 20.2182C41.1744 20.1852 41.1505 20.1552 41.0995 20.0803C41.0995 20.1852 41.0785 20.2452 41.0785 20.3052C41.0785 21.5647 41.0785 22.8241 41.0785 24.0836C41.0537 24.2379 41.1516 24.3854 41.3034 24.4225C42.1686 24.8017 42.643 25.7414 42.4341 26.6626C42.2392 27.5776 41.4309 28.2318 40.4951 28.2318C39.5594 28.2318 38.751 27.5776 38.5561 26.6626C38.355 25.7504 38.8222 24.8224 39.6748 24.4405C39.8345 24.4006 39.9381 24.2465 39.9148 24.0836C39.9148 22.8421 39.9148 21.6036 39.9148 20.3622V20.1432H39.8578L39.045 21.6126C38.898 21.8795 38.7451 22.1494 38.6041 22.4073C38.5323 22.5533 38.4042 22.6639 38.2492 22.7137C38.0943 22.7635 37.9257 22.7481 37.7823 22.6712C37.6442 22.5927 37.5445 22.4608 37.5065 22.3066C37.4685 22.1523 37.4955 21.9892 37.5814 21.8555C38.3812 20.3981 39.1809 18.9457 39.9807 17.4983C40.2507 17.0185 40.7845 17.0605 41.0665 17.5673C41.8793 19.0337 42.6831 20.5061 43.4929 21.9725L46.1622 26.8155C46.5401 27.5022 46.5281 27.5742 45.9792 28.123C44.9175 29.1771 44.1618 30.4996 43.7928 31.9494C43.7658 32.0244 43.7568 32.1023 43.7358 32.2043ZM40.5236 33.3768H36.9245C36.8077 33.3719 36.6908 33.3819 36.5766 33.4068C36.3219 33.4694 36.1429 33.6978 36.1429 33.9601C36.1429 34.2223 36.3219 34.4507 36.5766 34.5133C36.691 34.5368 36.8078 34.5469 36.9245 34.5433C39.3019 34.5433 41.6813 34.5433 44.0627 34.5433C44.1994 34.5485 44.336 34.5323 44.4676 34.4953C44.6926 34.4133 44.8422 34.1995 44.8422 33.9601C44.8422 33.7207 44.6926 33.5068 44.4676 33.4248C44.337 33.3876 44.2014 33.3714 44.0657 33.3768H40.5236ZM41.3094 26.2367C41.3278 25.933 41.1762 25.6441 40.9157 25.4866C40.6553 25.3292 40.329 25.3292 40.0685 25.4866C39.808 25.6441 39.6564 25.933 39.6748 26.2367C39.701 26.6688 40.0591 27.0059 40.4921 27.0059C40.9251 27.0059 41.2832 26.6688 41.3094 26.2367Z" fill="white"/>
<path d="M37.0305 23.4299C37.3352 23.4577 37.5663 23.7169 37.5592 24.0227C37.5521 24.3286 37.3092 24.5767 37.0035 24.5904C36.6987 24.5625 36.4677 24.3034 36.4748 23.9975C36.4819 23.6916 36.7248 23.4435 37.0305 23.4299Z" fill="white"/>
<defs>
<filter id="filter0_dddd_223_1397" x="0.5" y="0" width="66" height="65" filterUnits="userSpaceOnUse" color-interpolation-filters="sRGB">
<feFlood flood-opacity="0" result="BackgroundImageFix"/>
<feColorMatrix in="SourceAlpha" type="matrix" values="0 0 0 0 0 0 0 0 0 0 0 0 0 0 0 0 0 0 127 0" result="hardAlpha"/>
<feOffset dx="-1" dy="1"/>
<feGaussianBlur stdDeviation="1"/>
<feColorMatrix type="matrix" values="0 0 0 0 0 0 0 0 0 0 0 0 0 0 0 0 0 0 0.1 0"/>
<feBlend mode="normal" in2="BackgroundImageFix" result="effect1_dropShadow_223_1397"/>
<feColorMatrix in="SourceAlpha" type="matrix" values="0 0 0 0 0 0 0 0 0 0 0 0 0 0 0 0 0 0 127 0" result="hardAlpha"/>
<feOffset dx="-2" dy="2"/>
<feGaussianBlur stdDeviation="1.5"/>
<feColorMatrix type="matrix" values="0 0 0 0 0 0 0 0 0 0 0 0 0 0 0 0 0 0 0.09 0"/>
<feBlend mode="normal" in2="effect1_dropShadow_223_1397" result="effect2_dropShadow_223_1397"/>
<feColorMatrix in="SourceAlpha" type="matrix" values="0 0 0 0 0 0 0 0 0 0 0 0 0 0 0 0 0 0 127 0" result="hardAlpha"/>
<feOffset dx="-5" dy="5"/>
<feGaussianBlur stdDeviation="2"/>
<feColorMatrix type="matrix" values="0 0 0 0 0 0 0 0 0 0 0 0 0 0 0 0 0 0 0.05 0"/>
<feBlend mode="normal" in2="effect2_dropShadow_223_1397" result="effect3_dropShadow_223_1397"/>
<feColorMatrix in="SourceAlpha" type="matrix" values="0 0 0 0 0 0 0 0 0 0 0 0 0 0 0 0 0 0 127 0" result="hardAlpha"/>
<feOffset dx="-10" dy="9"/>
<feGaussianBlur stdDeviation="2.5"/>
<feColorMatrix type="matrix" values="0 0 0 0 0 0 0 0 0 0 0 0 0 0 0 0 0 0 0.01 0"/>
<feBlend mode="normal" in2="effect3_dropShadow_223_1397" result="effect4_dropShadow_223_1397"/>
<feBlend mode="normal" in="SourceGraphic" in2="effect4_dropShadow_223_1397" result="shape"/>
</filter>
</defs>
</svg>
