<svg width="66" height="65" viewBox="0 0 66 65" fill="none" xmlns="http://www.w3.org/2000/svg">
<g filter="url(#filter0_dddd_223_1413)">
<circle cx="40" cy="26" r="25" fill="#0160E7"/>
</g>
<path d="M26.8683 35.0589C25.6446 35.0589 25 34.4173 25 33.2025V15.8148C25 14.6267 25.6564 13.9702 26.8446 13.9702H27.5901C27.7702 13.9555 27.9479 14.0191 28.0776 14.1448C28.2073 14.2706 28.2765 14.4462 28.2673 14.6267C28.2704 14.8014 28.1996 14.9694 28.0723 15.0892C27.9451 15.2091 27.7733 15.2698 27.599 15.2564H26.7644C26.3812 15.2564 26.2861 15.3573 26.2861 15.7494V29.7897H53.7079V15.8296C53.7079 15.3068 53.6455 15.2356 53.1139 15.2356H52.6772C52.5703 15.2356 52.4663 15.2356 52.3594 15.2356C52.1955 15.2379 52.0375 15.1751 51.9199 15.0609C51.8024 14.9467 51.735 14.7905 51.7327 14.6267C51.7197 14.4521 51.7822 14.2803 51.9043 14.1548C52.0264 14.0293 52.1964 13.9621 52.3713 13.9702H52.9505C53.1198 13.9702 53.2921 13.9702 53.4644 13.9702C54.2857 14.0218 54.9421 14.6731 55 15.494C55 15.5771 55 15.6603 55 15.7435V33.1995C55 34.4143 54.3554 35.0589 53.1376 35.0589H26.8683ZM26.2743 33.149C26.2743 33.7223 26.3218 33.7698 26.901 33.7698H53.2772C53.5891 33.7698 53.6931 33.651 53.696 33.3391C53.696 32.7451 53.696 32.1243 53.696 31.5154V31.1085H26.2861L26.2743 33.149Z" fill="white"/>
<path d="M50.3834 29.1184C50.052 29.1303 49.7714 28.8761 49.7507 28.5452C49.7462 28.464 49.7462 28.3827 49.7507 28.3016V16.2632H30.2418V28.2927C30.2463 28.3748 30.2463 28.4571 30.2418 28.5392C30.2213 28.8676 29.947 29.1222 29.6181 29.1184H29.5824C29.261 29.1226 28.9911 28.8774 28.9646 28.557C28.9571 28.481 28.9571 28.4044 28.9646 28.3283V12.8178C28.9557 11.6624 29.6151 11 30.7646 11H49.2309C50.3567 11 51.0309 11.6713 51.0309 12.7821V28.3224C51.0309 28.5095 51.0309 29.0739 50.4369 29.1184H50.3834ZM49.7448 14.9474V12.9009C49.7448 12.3396 49.6943 12.2861 49.1507 12.2861H30.6577C30.3606 12.2861 30.2507 12.4019 30.2448 12.693C30.2388 12.9841 30.2448 13.195 30.2448 13.4475V14.9326L49.7448 14.9474Z" fill="white"/>
<path d="M33.813 40.9994C33.1209 40.9994 32.9219 40.7974 32.9219 40.1083V39.8796C32.9219 39.6954 32.9219 39.5113 32.9219 39.3301C32.9203 38.4927 33.5712 37.7988 34.407 37.747H34.5407H34.7189C35.2239 37.747 35.61 37.5272 35.9872 37.0133C36.2219 36.6955 36.4328 36.3599 36.5813 36.1015C36.6949 35.872 36.9202 35.7188 37.1753 35.6975C37.2701 35.699 37.3634 35.7213 37.4486 35.7629C37.6067 35.836 37.7272 35.9715 37.7813 36.1371C37.8341 36.3315 37.804 36.539 37.6981 36.7104C37.5347 37.0074 37.3565 37.2717 37.1664 37.5598C37.1367 37.6103 37.1041 37.6579 37.0714 37.7084H42.905C42.8456 37.6163 42.7833 37.5242 42.7209 37.4321C42.5635 37.2004 42.4001 36.9599 42.2575 36.7074C42.1525 36.5368 42.1234 36.3301 42.1773 36.1371C42.2301 35.9717 42.3496 35.836 42.507 35.7629C42.5904 35.7226 42.6817 35.7013 42.7744 35.7005C43.0331 35.7169 43.2652 35.8649 43.3892 36.0926C43.6417 36.4638 43.9209 36.8292 44.1912 37.1826L44.3724 37.4232C44.5159 37.6191 44.7476 37.7305 44.9902 37.7202H45.1001C45.1693 37.7158 45.2388 37.7158 45.308 37.7202C45.5024 37.721 45.696 37.7459 45.8843 37.7945C46.5633 37.9752 47.0452 38.5775 47.0724 39.2796C47.0724 39.5766 47.0724 39.9271 47.0724 40.3103C47.088 40.4927 47.0242 40.6729 46.8973 40.8049C46.7705 40.9369 46.5929 41.0077 46.41 40.9994H33.813ZM45.7922 39.7014C45.81 39.4044 45.7922 39.2113 45.7209 39.1281C45.6496 39.045 45.4239 39.0182 45.0793 39.0182H34.5377C34.3683 39.0148 34.2265 39.146 34.2169 39.3153C34.2064 39.4318 34.2064 39.5491 34.2169 39.6657V39.6984L45.7922 39.7014Z" fill="white"/>
<path d="M38.5341 28.1322C38.4614 28.1315 38.3893 28.1195 38.3203 28.0966C38.1606 28.0536 38.026 27.9459 37.949 27.7995C37.8576 27.5476 37.8705 27.2697 37.9846 27.0273L38.5787 25.2451C39.3331 22.9858 40.0856 20.7254 40.8361 18.4641C40.891 18.1682 41.1315 17.9422 41.4302 17.9057C41.6547 17.8912 41.8717 17.9892 42.0094 18.1671C42.134 18.3505 42.1627 18.5826 42.0866 18.7908C41.8371 19.5611 41.5827 20.3304 41.3232 21.0987L39.2143 27.4283C39.1044 27.7431 38.9292 28.1322 38.5341 28.1322Z" fill="white"/>
<path d="M36.0575 26.172C35.8967 26.167 35.743 26.1048 35.6239 25.9968L34.2397 24.8443L33.3843 24.1315C33.1644 23.9503 32.9446 23.7721 32.7189 23.582C32.5407 23.4515 32.4315 23.2472 32.4219 23.0265C32.4345 22.8084 32.5433 22.6071 32.7189 22.477C33.6575 21.685 34.5981 20.8999 35.5407 20.1217C35.6844 19.9916 35.8697 19.9168 36.0635 19.9108C36.2406 19.9112 36.4084 19.9907 36.5209 20.1276C36.6324 20.2505 36.6892 20.4135 36.6783 20.5791C36.6532 20.7893 36.5465 20.9813 36.3813 21.1137L34.5664 22.6285L34.0704 23.0295L34.5011 23.383L36.3367 24.9126L36.3635 24.9364C36.4702 25.0171 36.5601 25.118 36.6278 25.2334C36.7899 25.4997 36.7185 25.8459 36.4644 26.0265C36.3505 26.1219 36.2062 26.1735 36.0575 26.172Z" fill="white"/>
<path d="M43.9269 26.1483C43.7446 26.1476 43.5727 26.0633 43.4606 25.9195C43.347 25.7953 43.2891 25.6301 43.3002 25.4621C43.3224 25.2714 43.421 25.0978 43.5734 24.981C44.0784 24.5532 44.5893 24.1285 45.1002 23.7038L45.8279 23.1097L45.917 23.0295L44.0101 21.4226L43.8586 21.3008C43.7546 21.2177 43.6507 21.1315 43.5616 21.0424C43.2921 20.8203 43.2524 20.4224 43.4724 20.1514C43.5904 20.0052 43.7659 19.9174 43.9536 19.9108C44.101 19.9123 44.2431 19.966 44.3546 20.0622C45.5635 21.0543 46.4843 21.8266 47.3427 22.5602C47.4844 22.6691 47.5695 22.836 47.5744 23.0147C47.5579 23.2462 47.4393 23.4585 47.2507 23.5939C46.619 24.1245 45.9843 24.6542 45.3467 25.1829L44.5655 25.8512C44.5031 25.9047 44.4408 25.9582 44.3754 26.0057C44.2453 26.1006 44.0879 26.1506 43.9269 26.1483Z" fill="white"/>
<path d="M39.4381 33.0777H39.0609C38.7989 33.095 38.5529 32.951 38.4397 32.7142C38.3265 32.4773 38.369 32.1954 38.547 32.0025C38.6844 31.8644 38.8721 31.7882 39.0668 31.7916C39.3906 31.7916 39.7143 31.7916 40.0381 31.7916C40.3619 31.7916 40.6708 31.7916 40.9886 31.7916C41.1807 31.7869 41.3663 31.861 41.5025 31.9965C41.6778 32.1908 41.7182 32.4718 41.6049 32.7076C41.4915 32.9434 41.2468 33.0873 40.9856 33.0718H39.4381V33.0777Z" fill="white"/>
<path d="M42.5625 14.2673C42.3454 14.2864 42.1302 14.2143 41.9685 14.0683C41.8546 13.9442 41.7966 13.7789 41.8081 13.6109C41.8081 13.2158 42.1051 12.9812 42.5447 12.9812H48.31C48.7586 12.9812 49.0556 13.2277 49.0556 13.6198C49.0642 13.8007 48.9899 13.9757 48.8536 14.095C48.7008 14.2172 48.5083 14.2785 48.313 14.2673H42.5625Z" fill="white"/>
<path d="M31.5782 14.2673C31.4079 14.2657 31.2454 14.1962 31.1267 14.0742C31.0043 13.9538 30.9366 13.7885 30.9395 13.6168C30.9428 13.266 31.2273 12.9828 31.5782 12.9812C31.75 12.9832 31.9143 13.0525 32.0356 13.1743C32.1556 13.2948 32.2219 13.4586 32.2197 13.6287C32.2134 13.9787 31.9312 14.261 31.5811 14.2673H31.5782Z" fill="white"/>
<path d="M33.5605 14.2673C33.2082 14.2609 32.925 13.9751 32.9219 13.6228C32.9219 13.2684 33.2091 12.9812 33.5635 12.9812C33.9178 12.9812 34.205 13.2684 34.205 13.6228C34.2003 13.9756 33.9163 14.2609 33.5635 14.2673H33.5605Z" fill="white"/>
<path d="M35.5242 14.2674C35.1731 14.2529 34.8969 13.9623 34.9004 13.6109C34.9033 13.3507 35.0646 13.1186 35.3074 13.025C35.5502 12.9314 35.8256 12.9953 36.0024 13.1862C36.1211 13.3072 36.1854 13.4712 36.1806 13.6406C36.1695 13.9878 35.8864 14.2643 35.539 14.2674H35.5242Z" fill="white"/>
<defs>
<filter id="filter0_dddd_223_1413" x="0" y="0" width="66" height="65" filterUnits="userSpaceOnUse" color-interpolation-filters="sRGB">
<feFlood flood-opacity="0" result="BackgroundImageFix"/>
<feColorMatrix in="SourceAlpha" type="matrix" values="0 0 0 0 0 0 0 0 0 0 0 0 0 0 0 0 0 0 127 0" result="hardAlpha"/>
<feOffset dx="-1" dy="1"/>
<feGaussianBlur stdDeviation="1"/>
<feColorMatrix type="matrix" values="0 0 0 0 0 0 0 0 0 0 0 0 0 0 0 0 0 0 0.1 0"/>
<feBlend mode="normal" in2="BackgroundImageFix" result="effect1_dropShadow_223_1413"/>
<feColorMatrix in="SourceAlpha" type="matrix" values="0 0 0 0 0 0 0 0 0 0 0 0 0 0 0 0 0 0 127 0" result="hardAlpha"/>
<feOffset dx="-2" dy="2"/>
<feGaussianBlur stdDeviation="1.5"/>
<feColorMatrix type="matrix" values="0 0 0 0 0 0 0 0 0 0 0 0 0 0 0 0 0 0 0.09 0"/>
<feBlend mode="normal" in2="effect1_dropShadow_223_1413" result="effect2_dropShadow_223_1413"/>
<feColorMatrix in="SourceAlpha" type="matrix" values="0 0 0 0 0 0 0 0 0 0 0 0 0 0 0 0 0 0 127 0" result="hardAlpha"/>
<feOffset dx="-5" dy="5"/>
<feGaussianBlur stdDeviation="2"/>
<feColorMatrix type="matrix" values="0 0 0 0 0 0 0 0 0 0 0 0 0 0 0 0 0 0 0.05 0"/>
<feBlend mode="normal" in2="effect2_dropShadow_223_1413" result="effect3_dropShadow_223_1413"/>
<feColorMatrix in="SourceAlpha" type="matrix" values="0 0 0 0 0 0 0 0 0 0 0 0 0 0 0 0 0 0 127 0" result="hardAlpha"/>
<feOffset dx="-10" dy="9"/>
<feGaussianBlur stdDeviation="2.5"/>
<feColorMatrix type="matrix" values="0 0 0 0 0 0 0 0 0 0 0 0 0 0 0 0 0 0 0.01 0"/>
<feBlend mode="normal" in2="effect3_dropShadow_223_1413" result="effect4_dropShadow_223_1413"/>
<feBlend mode="normal" in="SourceGraphic" in2="effect4_dropShadow_223_1413" result="shape"/>
</filter>
</defs>
</svg>
