<svg width="36" height="36" viewBox="0 0 36 36" fill="none" xmlns="http://www.w3.org/2000/svg">
<circle cx="18" cy="18" r="17.5" stroke="#FE4C1C"/>
<path d="M21.1495 24.7504L19.8003 24.7521V23.625H16.2003V24.7574L14.8509 24.7591C14.6028 24.7595 14.4017 25.0109 14.4015 25.3213L14.4001 26.4368C14.3998 26.7479 14.6017 27.0004 14.8506 27L21.1495 26.9909C21.3975 26.9905 21.5986 26.7391 21.5989 26.4291L21.6 25.3136C21.6003 25.0024 21.3984 24.75 21.1495 24.7504ZM25.4587 9.94008C25.385 9.39762 25.0028 9 24.5548 9H11.445C10.997 9 10.6147 9.39762 10.5411 9.94008C8.90672 21.9783 9.00122 21.2372 9.00094 21.375C9.00009 21.9839 9.40284 22.5 9.91781 22.5H26.0823C26.595 22.5 26.9966 21.9881 26.9989 21.3824C26.9994 21.2389 27.0931 21.9783 25.4587 9.94008ZM16.3078 11.25H19.692L19.9668 14.625H16.033L16.3078 11.25ZM14.1936 20.25H10.9995L11.5341 16.3125H14.5145L14.1936 20.25ZM14.6518 14.625H11.7631L12.2212 11.25H14.9266L14.6518 14.625ZM15.5748 20.25L15.8955 16.3125H20.1043L20.425 20.25H15.5748ZM21.0732 11.25H23.7786L24.2367 14.625H21.348L21.0732 11.25ZM21.8062 20.25L21.4855 16.3125H24.4659L25.0006 20.25H21.8062Z" fill="#FE4C1C"/>
</svg>
