<svg width="66" height="65" viewBox="0 0 66 65" fill="none" xmlns="http://www.w3.org/2000/svg">
<g filter="url(#filter0_dddd_223_1479)">
<circle cx="40" cy="26" r="25" fill="#0160E7"/>
</g>
<path d="M38.6757 40.9941C38.0992 40.9941 37.8759 40.7713 37.8699 40.2011C37.8699 40.017 37.8699 39.8329 37.8699 39.6518V39.5597H28.2792C28.2853 39.6655 28.2853 39.7716 28.2792 39.8775C28.2809 40.0428 28.2144 40.2018 28.095 40.3182C27.9756 40.4345 27.8135 40.4984 27.6455 40.4951C27.3135 40.4951 26.9815 40.4951 26.6496 40.4951C26.3176 40.4951 25.9736 40.4951 25.6356 40.4951C25.4627 40.5041 25.2943 40.4396 25.1731 40.318C25.0518 40.1965 24.9895 40.0295 25.0018 39.8596C25.0018 39.2122 25.0018 38.5708 25.0018 37.9412C24.9949 37.7654 25.0631 37.5948 25.1898 37.4707C25.3165 37.3466 25.4902 37.2803 25.6688 37.2879H25.8438H25.9706V14.7181H25.6688C25.4849 14.7236 25.3072 14.6521 25.18 14.5213C25.0528 14.3904 24.988 14.2126 25.0018 14.0321C25.0018 13.3758 25.0018 12.7462 25.0018 12.1433C24.9888 11.9706 25.0512 11.8006 25.1733 11.6759C25.2954 11.5512 25.4657 11.4836 25.6416 11.49C25.9716 11.49 26.3005 11.49 26.6284 11.49C26.9564 11.49 27.2883 11.49 27.6243 11.49C27.7979 11.4858 27.9656 11.5523 28.0878 11.6737C28.2101 11.795 28.276 11.9607 28.2701 12.1315C28.2701 12.2295 28.2701 12.3304 28.2701 12.4284H37.8699V12.3364C37.8699 12.1641 37.8699 12.0038 37.8699 11.8434C37.827 11.5131 37.9884 11.1894 38.2803 11.0208L38.3105 11H41.6935L41.7297 11.0208C42.0198 11.1907 42.1798 11.5138 42.1371 11.8434C42.1371 12.0097 42.1371 12.176 42.1371 12.3482V12.4403H51.7218C51.7218 12.3423 51.7218 12.2532 51.7218 12.1612C51.7104 11.9807 51.7776 11.8041 51.9067 11.6754C52.0357 11.5467 52.2143 11.4782 52.3978 11.487H53.3695C53.6874 11.487 54.0043 11.487 54.3201 11.487C54.509 11.4763 54.6932 11.548 54.8234 11.6831C54.9537 11.8181 55.0169 12.0028 54.9961 12.1879C54.9961 12.8501 54.9961 13.4589 54.9961 14.0469C55.0067 14.2282 54.9383 14.4053 54.8082 14.5339C54.678 14.6626 54.4983 14.7306 54.3141 14.721H54.0123V37.2908H54.2869C54.4764 37.2766 54.6628 37.3441 54.7978 37.4758C54.9327 37.6074 55.0029 37.7903 54.9901 37.9768C54.9901 38.6005 54.9901 39.2241 54.9901 39.8388C55.003 40.0157 54.9391 40.1897 54.8143 40.3177C54.6894 40.4456 54.5154 40.5155 54.3352 40.51C54.0053 40.51 53.6763 40.51 53.3484 40.51C53.0285 40.51 52.7056 40.51 52.3857 40.51C52.2071 40.5176 52.0334 40.4513 51.9067 40.3272C51.78 40.2031 51.7118 40.0325 51.7187 39.8567C51.7187 39.7587 51.7187 39.6607 51.7187 39.5597H42.1341V39.6785C42.1341 39.8685 42.1341 40.0527 42.1341 40.2368C42.1341 40.7624 41.8866 40.997 41.3585 41H38.6757V40.9941ZM40.8244 39.6933V38.0927H39.1857V39.6933H40.8244ZM53.6713 39.2122V38.5767H53.0225V39.2122H53.6713ZM26.9785 39.2122V38.5737H26.3206V39.2122H26.9785ZM34.0342 38.2382C31.0876 36.8982 28.7093 34.5872 27.3105 31.7048V37.27C28.1585 37.3502 28.2369 37.4393 28.2883 38.1016C28.2883 38.1461 28.2883 38.1936 28.2883 38.2471L34.0342 38.2382ZM51.6735 38.2382C51.6886 38.1817 51.6976 38.1283 51.7097 38.0748C51.6996 37.8535 51.7862 37.6385 51.9477 37.4841C52.1092 37.3297 52.3301 37.2507 52.5547 37.2671L52.6995 37.2433V31.8206C51.2633 34.6535 48.8869 36.9188 45.9637 38.2411L51.6735 38.2382ZM41.3615 36.8068C41.8927 36.8068 42.125 37.0354 42.1341 37.567C42.1341 37.7155 42.1341 37.864 42.1341 38.0244V38.0808C43.5409 37.8553 44.8983 37.3954 46.1478 36.7206L45.1278 33.9855L39.4301 36.0376L39.4724 36.1475C39.5448 36.3405 39.6172 36.5276 39.6746 36.7147C39.7017 36.7979 39.7168 36.8097 39.8104 36.8097C40.0608 36.8097 40.2962 36.8097 40.5316 36.8097L41.3615 36.8068ZM37.8699 13.94C32.4378 14.6706 26.9121 19.7131 27.3075 26.7098C27.7209 33.7777 33.666 37.5611 37.8699 38.0451V37.9798C37.8699 37.8046 37.8699 37.6294 37.8699 37.4542C37.87 37.1663 38.0649 36.9138 38.3467 36.8365C38.2532 36.593 38.1626 36.3494 38.0721 36.1089C37.8186 35.4407 37.5832 34.8171 37.375 34.1637C37.0007 33.0412 36.2161 32.3997 34.9758 32.2067C34.7297 32.2 34.4978 32.0923 34.336 31.9097C34.2198 31.6993 34.1979 31.4507 34.2756 31.2237L34.9154 28.0966C35.3178 26.1168 35.7202 24.1321 36.1226 22.1423C36.2719 21.5727 36.3179 20.9816 36.2584 20.3962C36.0411 18.9796 36.7593 17.8452 38.1747 17.3581C38.7919 17.1534 39.4398 17.053 40.091 17.0612C40.3928 17.0612 40.7097 17.079 41.0929 17.1087L41.3042 17.1295C41.6754 17.1592 42.0617 17.1948 42.4359 17.1948C42.7853 17.1983 43.1338 17.1604 43.474 17.082C44.1742 16.9127 44.3794 16.6721 44.479 15.9683V15.8644L45.6861 15.609L45.7253 15.8466C45.7253 15.9 45.7434 15.9416 45.7464 15.9832C45.8059 16.947 45.2103 17.8334 44.2858 18.157C43.7087 18.3769 43.0939 18.4848 42.4751 18.4748C42.2488 18.4748 42.0164 18.4748 41.7629 18.4421L41.5788 18.4243C41.102 18.3827 40.6071 18.3411 40.1242 18.3411C39.7907 18.3384 39.4576 18.3633 39.1283 18.4154C38.5971 18.458 38.1066 18.7123 37.7703 19.1192C37.5207 19.5123 37.4465 19.9891 37.5651 20.4377C37.5967 20.5467 37.6621 20.6433 37.7522 20.7139C39.8848 22.3928 42.0204 24.0667 44.1591 25.7357L45.7706 26.9978C46.3742 27.467 46.3983 27.6957 45.9245 28.2867C45.2345 29.0593 45.0475 30.1493 45.4416 31.102C45.8641 32.2008 46.2776 33.3263 46.679 34.4132L47.2312 35.898L47.2765 36.0079C50.7775 33.6801 52.8232 29.7501 52.6971 25.594C52.571 21.438 50.2907 17.6351 46.6548 15.5169C45.2708 14.6844 43.7318 14.1322 42.1281 13.8925V13.9667C42.1281 14.133 42.1281 14.2845 42.1281 14.436C42.1624 14.6394 42.0967 14.8469 41.9509 14.9951C41.8051 15.1432 41.5965 15.2146 41.3887 15.1873H38.6183C38.4142 15.2169 38.2078 15.1507 38.0608 15.0083C37.9137 14.866 37.8431 14.664 37.8699 14.4627C37.8699 14.3023 37.8699 14.142 37.8699 13.9816V13.94ZM35.6669 31.0604C37.0303 31.3615 38.1281 32.3535 38.5489 33.6648C38.6515 33.9618 38.7632 34.2588 38.8778 34.5557L38.9865 34.8527L44.6842 32.8006L44.5604 32.4651C44.4337 32.1235 44.31 31.7909 44.1892 31.4613C43.9678 30.886 43.8922 30.2662 43.9689 29.6557C44.0617 28.9927 44.3086 28.3596 44.6902 27.8056L38.4131 22.8788L39.9431 26.9978H40.0276C40.9788 27.0117 41.7762 27.7092 41.9017 28.6371C42.0266 29.5205 41.5164 30.3721 40.6704 30.6921C40.4518 30.7749 40.2196 30.8172 39.9854 30.8169C39.3329 30.8199 38.7226 30.4996 38.3618 29.9646C37.838 29.2043 37.9504 28.1826 38.6274 27.5502C38.733 27.4492 38.742 27.4106 38.6968 27.2889C38.3226 26.3286 37.9564 25.3625 37.5983 24.3904L37.1999 23.3213L35.6246 31.0426L35.6669 31.0604ZM39.9612 28.2718C39.6102 28.2702 39.3234 28.5471 39.3184 28.8925C39.3147 29.0663 39.3821 29.2344 39.5056 29.3587C39.6228 29.4802 39.785 29.5498 39.9552 29.5518C40.3154 29.5487 40.608 29.2647 40.6161 28.9103C40.6161 28.7405 40.5473 28.5776 40.425 28.4578C40.3027 28.338 40.1369 28.271 39.9643 28.2718H39.9612ZM46.0543 13.747C48.9607 15.1016 51.305 17.3991 52.6935 20.2536V14.7567C52.6388 14.742 52.5834 14.7301 52.5275 14.721C52.3061 14.7033 52.0955 14.6194 51.924 14.4805C51.7919 14.3088 51.7161 14.1017 51.7067 13.8866C51.7067 13.842 51.7067 13.7945 51.6856 13.75L46.0543 13.747ZM27.3105 20.1853C28.7312 17.345 31.1023 15.0725 34.0252 13.75H28.3214C28.3214 13.8034 28.3003 13.8569 28.2913 13.9073C28.2745 14.1239 28.1926 14.3307 28.0559 14.5013C27.882 14.633 27.6715 14.7096 27.4523 14.721L27.3075 14.7478L27.3105 20.1853ZM40.8274 13.8925V12.2889H39.1857V13.8925H40.8274ZM53.6713 13.4144V12.7818H53.0375V13.4144H53.6713ZM26.9604 13.4144V12.7818H26.3146V13.4144H26.9604Z" fill="white"/>
<defs>
<filter id="filter0_dddd_223_1479" x="0" y="0" width="66" height="65" filterUnits="userSpaceOnUse" color-interpolation-filters="sRGB">
<feFlood flood-opacity="0" result="BackgroundImageFix"/>
<feColorMatrix in="SourceAlpha" type="matrix" values="0 0 0 0 0 0 0 0 0 0 0 0 0 0 0 0 0 0 127 0" result="hardAlpha"/>
<feOffset dx="-1" dy="1"/>
<feGaussianBlur stdDeviation="1"/>
<feColorMatrix type="matrix" values="0 0 0 0 0 0 0 0 0 0 0 0 0 0 0 0 0 0 0.1 0"/>
<feBlend mode="normal" in2="BackgroundImageFix" result="effect1_dropShadow_223_1479"/>
<feColorMatrix in="SourceAlpha" type="matrix" values="0 0 0 0 0 0 0 0 0 0 0 0 0 0 0 0 0 0 127 0" result="hardAlpha"/>
<feOffset dx="-2" dy="2"/>
<feGaussianBlur stdDeviation="1.5"/>
<feColorMatrix type="matrix" values="0 0 0 0 0 0 0 0 0 0 0 0 0 0 0 0 0 0 0.09 0"/>
<feBlend mode="normal" in2="effect1_dropShadow_223_1479" result="effect2_dropShadow_223_1479"/>
<feColorMatrix in="SourceAlpha" type="matrix" values="0 0 0 0 0 0 0 0 0 0 0 0 0 0 0 0 0 0 127 0" result="hardAlpha"/>
<feOffset dx="-5" dy="5"/>
<feGaussianBlur stdDeviation="2"/>
<feColorMatrix type="matrix" values="0 0 0 0 0 0 0 0 0 0 0 0 0 0 0 0 0 0 0.05 0"/>
<feBlend mode="normal" in2="effect2_dropShadow_223_1479" result="effect3_dropShadow_223_1479"/>
<feColorMatrix in="SourceAlpha" type="matrix" values="0 0 0 0 0 0 0 0 0 0 0 0 0 0 0 0 0 0 127 0" result="hardAlpha"/>
<feOffset dx="-10" dy="9"/>
<feGaussianBlur stdDeviation="2.5"/>
<feColorMatrix type="matrix" values="0 0 0 0 0 0 0 0 0 0 0 0 0 0 0 0 0 0 0.01 0"/>
<feBlend mode="normal" in2="effect3_dropShadow_223_1479" result="effect4_dropShadow_223_1479"/>
<feBlend mode="normal" in="SourceGraphic" in2="effect4_dropShadow_223_1479" result="shape"/>
</filter>
</defs>
</svg>
