<svg width="66" height="65" viewBox="0 0 66 65" fill="none" xmlns="http://www.w3.org/2000/svg">
<g filter="url(#filter0_dddd_223_1446)">
<circle cx="40" cy="26" r="25" fill="#0160E7"/>
</g>
<path d="M55 33.9254C54.757 34.6303 54.3109 35.0443 53.5704 35.0383C53.5189 35.0383 53.4503 35.1193 53.4217 35.1793C53.3931 35.2392 53.3559 35.3952 53.3016 35.4792C53.0929 35.8691 53.0157 36.1871 53.3645 36.601C53.7133 37.015 53.619 37.7408 53.2387 38.1848C52.958 38.5128 52.6601 38.8242 52.3466 39.1176C51.7747 39.6365 51.0857 39.5556 50.4023 38.9137C50.0763 39.0486 49.7418 39.1776 49.4158 39.3306C49.3615 39.3546 49.3301 39.4776 49.3272 39.5556C49.3374 39.955 49.1852 40.3401 48.9086 40.6148C48.6321 40.8895 48.2572 41.0278 47.8776 40.9953H46.9683C46.6174 41.0132 46.2745 40.8815 46.0177 40.6301C45.7608 40.3787 45.6117 40.029 45.6044 39.6605C45.6044 39.4266 45.5272 39.2976 45.3185 39.2646C45.2992 39.2617 45.2807 39.2545 45.2642 39.2436C44.8467 39.0036 44.4893 38.8807 44.0376 39.2976C43.6458 39.6605 42.9882 39.5166 42.5822 39.1296C42.2791 38.8297 41.9846 38.5297 41.7244 38.2298C41.2517 37.7046 41.2606 36.8809 41.7444 36.3671C41.8134 36.3134 41.8587 36.2327 41.8701 36.1434C41.8814 36.0541 41.8577 35.9638 41.8045 35.8931C41.719 35.7558 41.6579 35.6034 41.6243 35.4432C41.5586 35.1163 41.3927 35.0323 41.0782 35.0353C39.5828 35.0563 38.0903 35.0353 36.5949 35.0353C36.4329 35.0581 36.2691 35.0099 36.142 34.9021C36.0149 34.7943 35.9356 34.6363 35.9229 34.4654C35.9029 34.2877 35.9595 34.1099 36.0773 33.9805C36.1951 33.8511 36.3618 33.7836 36.532 33.7965C37.547 33.7965 38.5621 33.7965 39.5771 33.7965H39.9031C39.9031 33.4035 39.9031 33.0376 39.9031 32.6716C39.9031 31.7358 40.3748 31.2109 41.2612 31.1269C41.3498 31.1269 41.4385 31.0189 41.51 30.9439C41.5814 30.8689 41.5471 30.8299 41.5729 30.7759C41.7816 30.347 41.9103 29.9781 41.5185 29.5161C41.1268 29.0542 41.3012 28.3973 41.6729 27.9594C41.9589 27.6594 42.2448 27.3385 42.5307 27.0595C43.035 26.568 43.8187 26.5799 44.3092 27.0865C44.4118 27.2263 44.6016 27.2555 44.7381 27.1525C44.9926 27.0085 45.2728 26.9096 45.5358 26.7926C45.5498 26.5906 45.5785 26.3901 45.6216 26.1927C45.7412 25.6546 46.1776 25.2585 46.7024 25.2118C47.1506 25.1758 47.6009 25.1758 48.0491 25.2118C48.7061 25.2348 49.2349 25.7856 49.2614 26.4746C49.2815 26.7416 49.3615 26.8886 49.6103 26.9306C49.6593 26.9377 49.7061 26.9561 49.7475 26.9846C50.1192 27.2185 50.4452 27.2845 50.8169 26.9156C50.9913 26.7356 51.3344 26.7326 51.6404 26.6396V20.4576H26.1929C26.1929 20.5656 26.1929 20.6735 26.1929 20.7815V31.5378C26.1737 32.0693 26.3137 32.5938 26.5932 33.0376C26.874 33.5184 27.3767 33.8072 27.9141 33.7965C29.0064 33.7965 30.1015 33.7965 31.1937 33.7965C31.3521 33.7789 31.5102 33.8313 31.6302 33.9412C31.7501 34.0511 31.8209 34.2084 31.8256 34.3754C31.8423 34.5316 31.7974 34.6883 31.7013 34.809C31.6052 34.9296 31.4662 35.0038 31.3167 35.0143C30.0186 35.0143 28.7147 35.0863 27.4252 34.9723C26.2129 34.8643 25.2664 33.7185 25.0634 32.3537C25.0249 32.1007 25.0048 31.845 25.0034 31.5888C25.0034 25.8757 25.0034 20.1606 25.0034 14.4435C24.9568 13.3609 25.392 12.317 26.1814 11.618C26.6313 11.2145 27.205 10.9951 27.7969 11.0001C35.2158 11.0001 42.6365 11.0001 50.0592 11.0001C51.3544 11.0001 52.4695 12.0259 52.764 13.4867C52.8322 13.8583 52.8648 14.2361 52.8613 14.6145C52.8613 18.8258 52.8613 23.0352 52.8613 27.2425C52.8583 27.401 52.9056 27.5561 52.9956 27.6834C53.7305 28.5293 53.7476 29.1202 53.0271 29.9991C53.1529 30.332 53.2787 30.674 53.416 31.0099C53.4451 31.0696 53.4989 31.1117 53.5618 31.1239C54.2966 31.1239 54.7312 31.5258 54.9914 32.2007L55 33.9254ZM51.6775 19.1738V17.824C51.6775 16.5942 51.6975 15.3644 51.6604 14.1346C51.6232 12.9528 50.8769 12.2359 49.759 12.2359H41.7902C37.181 12.2359 32.5728 12.2359 27.9656 12.2359C27.4896 12.2132 27.03 12.4211 26.719 12.7998C26.3564 13.251 26.165 13.8266 26.1814 14.4165C26.1814 15.9163 26.1814 17.4161 26.1814 18.9338C26.1814 19.0148 26.1814 19.0928 26.2014 19.1828L51.6775 19.1738ZM43.4371 27.9414C43.4042 27.9433 43.372 27.9525 43.3428 27.9684C43.2198 28.0854 43.0997 28.2054 42.9825 28.3253C42.4707 28.8593 42.4735 28.8593 42.9653 29.3992C43.2513 29.7261 43.2741 29.9271 43.0854 30.335C42.8706 30.7937 42.6797 31.2644 42.5136 31.7448C42.3592 32.2277 42.2133 32.3747 41.7187 32.3777C41.0782 32.3777 41.0754 32.3777 41.0811 33.0736C41.0811 33.9045 40.9896 33.7875 41.7616 33.7935C42.2248 33.7935 42.3649 33.9374 42.5107 34.3934C42.6576 34.8578 42.8353 35.3108 43.0425 35.7492C43.2827 36.2561 43.2799 36.4331 42.9024 36.832C42.3963 37.3659 42.4135 37.2249 42.9024 37.7498C43.3914 38.2748 43.4057 38.2808 43.9232 37.7498C44.1331 37.4779 44.5079 37.4229 44.781 37.6239C45.2056 37.8534 45.644 38.0538 46.0934 38.2238C46.6424 38.4157 46.751 38.5237 46.751 39.1236C46.751 39.8195 46.6881 39.7475 47.3486 39.7475C48.0949 39.7475 48.0949 39.7475 48.1063 38.9796C48.1063 38.5477 48.2464 38.3947 48.6353 38.2538C49.1044 38.0981 49.5637 37.9118 50.0106 37.6959C50.4995 37.4439 50.6482 37.4439 51.0428 37.8488C51.5517 38.3737 51.4116 38.3647 51.9206 37.8488C52.4295 37.3329 52.4267 37.3179 51.9206 36.772C51.6346 36.472 51.6346 36.2501 51.8062 35.8721C52.0251 35.4257 52.2161 34.9648 52.378 34.4924C52.5582 33.9314 52.664 33.8235 53.2358 33.8235C53.9163 33.8235 53.8449 33.8775 53.8449 33.1756C53.8449 32.4257 53.8449 32.4257 53.13 32.4047C52.7154 32.4047 52.5582 32.2367 52.4238 31.8048C52.2588 31.3141 52.0679 30.8334 51.8519 30.365C51.6404 29.9151 51.6461 29.7261 51.992 29.3602C52.4495 28.8713 52.4495 28.8713 51.992 28.3943C51.5346 27.9174 51.5002 27.8814 51.0085 28.3943C50.6796 28.7273 50.4909 28.7273 50.0678 28.5143C49.6226 28.2845 49.1643 28.0842 48.6953 27.9144C48.2693 27.7614 48.1235 27.6145 48.1235 27.1165C48.1235 26.4296 48.1235 26.4296 47.4744 26.4296C46.7767 26.4296 46.7767 26.4296 46.7682 27.1525C46.7682 27.6204 46.6281 27.7764 46.1963 27.9204C45.7705 28.0647 45.3549 28.2401 44.9525 28.4453C44.3635 28.7453 44.2577 28.7633 43.7859 28.2713C43.7145 28.1994 43.6487 28.1244 43.5772 28.0554C43.534 28.0129 43.4871 27.9748 43.4371 27.9414Z" fill="white"/>
<path d="M55 33.9254C54.757 34.6303 54.3109 35.0443 53.5704 35.0383C53.5189 35.0383 53.4503 35.1193 53.4217 35.1793C53.3931 35.2392 53.3559 35.3952 53.3016 35.4792C53.0929 35.8691 53.0157 36.1871 53.3645 36.601C53.7133 37.015 53.619 37.7408 53.2387 38.1848C52.958 38.5128 52.6601 38.8242 52.3466 39.1176C51.7747 39.6365 51.0857 39.5556 50.4023 38.9137C50.0763 39.0486 49.7418 39.1776 49.4158 39.3306C49.3615 39.3546 49.3301 39.4776 49.3272 39.5556C49.3374 39.955 49.1852 40.3401 48.9086 40.6148C48.6321 40.8895 48.2572 41.0278 47.8776 40.9953H46.9683C46.6174 41.0132 46.2745 40.8815 46.0177 40.6301C45.7608 40.3787 45.6117 40.029 45.6044 39.6605C45.6044 39.4266 45.5272 39.2976 45.3185 39.2646C45.2992 39.2617 45.2807 39.2545 45.2642 39.2436C44.8467 39.0036 44.4893 38.8807 44.0376 39.2976C43.6458 39.6605 42.9882 39.5166 42.5822 39.1296C42.2791 38.8297 41.9846 38.5297 41.7244 38.2298C41.2517 37.7046 41.2606 36.8809 41.7444 36.3671C41.8134 36.3134 41.8587 36.2327 41.8701 36.1434C41.8814 36.0541 41.8577 35.9638 41.8045 35.8931C41.719 35.7558 41.6579 35.6034 41.6243 35.4432C41.5586 35.1163 41.3927 35.0323 41.0782 35.0353C39.5828 35.0563 38.0903 35.0353 36.5949 35.0353C36.4329 35.0581 36.2691 35.0099 36.142 34.9021C36.0149 34.7943 35.9356 34.6363 35.9229 34.4654C35.9029 34.2877 35.9595 34.1099 36.0773 33.9805C36.1951 33.8511 36.3618 33.7836 36.532 33.7965C37.547 33.7965 38.5621 33.7965 39.5771 33.7965H39.9031C39.9031 33.4035 39.9031 33.0376 39.9031 32.6716C39.9031 31.7358 40.3748 31.2109 41.2612 31.1269C41.3498 31.1269 41.4385 31.0189 41.51 30.9439C41.5814 30.8689 41.5471 30.8299 41.5729 30.7759C41.7816 30.347 41.9103 29.9781 41.5185 29.5161C41.1268 29.0542 41.3012 28.3973 41.6729 27.9594C41.9589 27.6594 42.2448 27.3385 42.5307 27.0595C43.035 26.568 43.8187 26.5799 44.3092 27.0865C44.4118 27.2263 44.6016 27.2555 44.7381 27.1525C44.9926 27.0085 45.2728 26.9096 45.5358 26.7926C45.5498 26.5906 45.5785 26.3901 45.6216 26.1927C45.7412 25.6546 46.1776 25.2585 46.7024 25.2118C47.1506 25.1758 47.6009 25.1758 48.0491 25.2118C48.7061 25.2348 49.2349 25.7856 49.2614 26.4746C49.2815 26.7416 49.3615 26.8886 49.6103 26.9306C49.6593 26.9377 49.7061 26.9561 49.7475 26.9846C50.1192 27.2185 50.4452 27.2845 50.8169 26.9156C50.9913 26.7356 51.3344 26.7326 51.6404 26.6396V20.4576H26.1929C26.1929 20.5656 26.1929 20.6735 26.1929 20.7815V31.5378C26.1737 32.0693 26.3137 32.5938 26.5932 33.0376C26.874 33.5184 27.3767 33.8072 27.9141 33.7965C29.0064 33.7965 30.1015 33.7965 31.1937 33.7965C31.3521 33.7789 31.5102 33.8313 31.6302 33.9412C31.7501 34.0511 31.8209 34.2084 31.8256 34.3754C31.8423 34.5316 31.7974 34.6883 31.7013 34.809C31.6052 34.9296 31.4662 35.0038 31.3167 35.0143C30.0186 35.0143 28.7147 35.0863 27.4252 34.9723C26.2129 34.8643 25.2664 33.7185 25.0634 32.3537C25.0249 32.1007 25.0048 31.845 25.0034 31.5888C25.0034 25.8757 25.0034 20.1606 25.0034 14.4435C24.9568 13.3609 25.392 12.317 26.1814 11.618C26.6313 11.2145 27.205 10.9951 27.7969 11.0001C35.2158 11.0001 42.6365 11.0001 50.0592 11.0001C51.3544 11.0001 52.4695 12.0259 52.764 13.4867C52.8322 13.8583 52.8648 14.2361 52.8613 14.6145C52.8613 18.8258 52.8613 23.0352 52.8613 27.2425C52.8583 27.401 52.9056 27.5561 52.9956 27.6834C53.7305 28.5293 53.7476 29.1202 53.0271 29.9991C53.1529 30.332 53.2787 30.674 53.416 31.0099C53.4451 31.0696 53.4989 31.1117 53.5618 31.1239C54.2966 31.1239 54.7312 31.5258 54.9914 32.2007L55 33.9254ZM51.6775 19.1738V17.824C51.6775 16.5942 51.6975 15.3644 51.6604 14.1346C51.6232 12.9528 50.8769 12.2359 49.759 12.2359H41.7902C37.181 12.2359 32.5728 12.2359 27.9656 12.2359C27.4896 12.2132 27.03 12.4211 26.719 12.7998C26.3564 13.251 26.165 13.8266 26.1814 14.4165C26.1814 15.9163 26.1814 17.4161 26.1814 18.9338C26.1814 19.0148 26.1814 19.0928 26.2014 19.1828L51.6775 19.1738ZM43.4371 27.9414C43.4042 27.9433 43.372 27.9525 43.3428 27.9684C43.2198 28.0854 43.0997 28.2054 42.9825 28.3253C42.4707 28.8593 42.4735 28.8593 42.9653 29.3992C43.2513 29.7261 43.2741 29.9271 43.0854 30.335C42.8706 30.7937 42.6797 31.2644 42.5136 31.7448C42.3592 32.2277 42.2133 32.3747 41.7187 32.3777C41.0782 32.3777 41.0754 32.3777 41.0811 33.0736C41.0811 33.9045 40.9896 33.7875 41.7616 33.7935C42.2248 33.7935 42.3649 33.9374 42.5107 34.3934C42.6576 34.8578 42.8353 35.3108 43.0425 35.7492C43.2827 36.2561 43.2799 36.4331 42.9024 36.832C42.3963 37.3659 42.4135 37.2249 42.9024 37.7498C43.3914 38.2748 43.4057 38.2808 43.9232 37.7498C44.1331 37.4779 44.5079 37.4229 44.781 37.6239C45.2056 37.8534 45.644 38.0538 46.0934 38.2238C46.6424 38.4157 46.751 38.5237 46.751 39.1236C46.751 39.8195 46.6881 39.7475 47.3486 39.7475C48.0949 39.7475 48.0949 39.7475 48.1063 38.9796C48.1063 38.5477 48.2464 38.3947 48.6353 38.2538C49.1044 38.0981 49.5637 37.9118 50.0106 37.6959C50.4995 37.4439 50.6482 37.4439 51.0428 37.8488C51.5517 38.3737 51.4116 38.3647 51.9206 37.8488C52.4295 37.3329 52.4267 37.3179 51.9206 36.772C51.6346 36.472 51.6346 36.2501 51.8062 35.8721C52.0251 35.4257 52.2161 34.9648 52.378 34.4924C52.5582 33.9314 52.664 33.8235 53.2358 33.8235C53.9163 33.8235 53.8449 33.8775 53.8449 33.1756C53.8449 32.4257 53.8449 32.4257 53.13 32.4047C52.7154 32.4047 52.5582 32.2367 52.4238 31.8048C52.2588 31.3141 52.0679 30.8334 51.8519 30.365C51.6404 29.9151 51.6461 29.7261 51.992 29.3602C52.4495 28.8713 52.4495 28.8713 51.992 28.3943C51.5346 27.9174 51.5002 27.8814 51.0085 28.3943C50.6796 28.7273 50.4909 28.7273 50.0678 28.5143C49.6226 28.2845 49.1643 28.0842 48.6953 27.9144C48.2693 27.7614 48.1235 27.6145 48.1235 27.1165C48.1235 26.4296 48.1235 26.4296 47.4744 26.4296C46.7767 26.4296 46.7767 26.4296 46.7682 27.1525C46.7682 27.6204 46.6281 27.7764 46.1963 27.9204C45.7705 28.0647 45.3549 28.2401 44.9525 28.4453C44.3635 28.7453 44.2577 28.7633 43.7859 28.2713C43.7145 28.1994 43.6487 28.1244 43.5772 28.0554C43.534 28.0129 43.4871 27.9748 43.4371 27.9414Z" fill="white"/>
<path d="M55 33.9254C54.757 34.6303 54.3109 35.0443 53.5704 35.0383C53.5189 35.0383 53.4503 35.1193 53.4217 35.1793C53.3931 35.2392 53.3559 35.3952 53.3016 35.4792C53.0929 35.8691 53.0157 36.1871 53.3645 36.601C53.7133 37.015 53.619 37.7408 53.2387 38.1848C52.958 38.5128 52.6601 38.8242 52.3466 39.1176C51.7747 39.6365 51.0857 39.5556 50.4023 38.9137C50.0763 39.0486 49.7418 39.1776 49.4158 39.3306C49.3615 39.3546 49.3301 39.4776 49.3272 39.5556C49.3374 39.955 49.1852 40.3401 48.9086 40.6148C48.6321 40.8895 48.2572 41.0278 47.8776 40.9953H46.9683C46.6174 41.0132 46.2745 40.8815 46.0177 40.6301C45.7608 40.3787 45.6117 40.029 45.6044 39.6605C45.6044 39.4266 45.5272 39.2976 45.3185 39.2646C45.2992 39.2617 45.2807 39.2545 45.2642 39.2436C44.8467 39.0036 44.4893 38.8807 44.0376 39.2976C43.6458 39.6605 42.9882 39.5166 42.5822 39.1296C42.2791 38.8297 41.9846 38.5297 41.7244 38.2298C41.2517 37.7046 41.2606 36.8809 41.7444 36.3671C41.8134 36.3134 41.8587 36.2327 41.8701 36.1434C41.8814 36.0541 41.8577 35.9638 41.8045 35.8931C41.719 35.7558 41.6579 35.6034 41.6243 35.4432C41.5586 35.1163 41.3927 35.0323 41.0782 35.0353C39.5828 35.0563 38.0903 35.0353 36.5949 35.0353C36.4329 35.0581 36.2691 35.0099 36.142 34.9021C36.0149 34.7943 35.9356 34.6363 35.9229 34.4654C35.9029 34.2877 35.9595 34.1099 36.0773 33.9805C36.1951 33.8511 36.3618 33.7836 36.532 33.7965C37.547 33.7965 38.5621 33.7965 39.5771 33.7965H39.9031C39.9031 33.4035 39.9031 33.0376 39.9031 32.6716C39.9031 31.7358 40.3748 31.2109 41.2612 31.1269C41.3498 31.1269 41.4385 31.0189 41.51 30.9439C41.5814 30.8689 41.5471 30.8299 41.5729 30.7759C41.7816 30.347 41.9103 29.9781 41.5185 29.5161C41.1268 29.0542 41.3012 28.3973 41.6729 27.9594C41.9589 27.6594 42.2448 27.3385 42.5307 27.0595C43.035 26.568 43.8187 26.5799 44.3092 27.0865C44.4118 27.2263 44.6016 27.2555 44.7381 27.1525C44.9926 27.0085 45.2728 26.9096 45.5358 26.7926C45.5498 26.5906 45.5785 26.3901 45.6216 26.1927C45.7412 25.6546 46.1776 25.2585 46.7024 25.2118C47.1506 25.1758 47.6009 25.1758 48.0491 25.2118C48.7061 25.2348 49.2349 25.7856 49.2614 26.4746C49.2815 26.7416 49.3615 26.8886 49.6103 26.9306C49.6593 26.9377 49.7061 26.9561 49.7475 26.9846C50.1192 27.2185 50.4452 27.2845 50.8169 26.9156C50.9913 26.7356 51.3344 26.7326 51.6404 26.6396V20.4576H26.1929C26.1929 20.5656 26.1929 20.6735 26.1929 20.7815V31.5378C26.1737 32.0693 26.3137 32.5938 26.5932 33.0376C26.874 33.5184 27.3767 33.8072 27.9141 33.7965C29.0064 33.7965 30.1015 33.7965 31.1937 33.7965C31.3521 33.7789 31.5102 33.8313 31.6302 33.9412C31.7501 34.0511 31.8209 34.2084 31.8256 34.3754C31.8423 34.5316 31.7974 34.6883 31.7013 34.809C31.6052 34.9296 31.4662 35.0038 31.3167 35.0143C30.0186 35.0143 28.7147 35.0863 27.4252 34.9723C26.2129 34.8643 25.2664 33.7185 25.0634 32.3537C25.0249 32.1007 25.0048 31.845 25.0034 31.5888C25.0034 25.8757 25.0034 20.1606 25.0034 14.4435C24.9568 13.3609 25.392 12.317 26.1814 11.618C26.6313 11.2145 27.205 10.9951 27.7969 11.0001C35.2158 11.0001 42.6365 11.0001 50.0592 11.0001C51.3544 11.0001 52.4695 12.0259 52.764 13.4867C52.8322 13.8583 52.8648 14.2361 52.8613 14.6145C52.8613 18.8258 52.8613 23.0352 52.8613 27.2425C52.8583 27.401 52.9056 27.5561 52.9956 27.6834C53.7305 28.5293 53.7476 29.1202 53.0271 29.9991C53.1529 30.332 53.2787 30.674 53.416 31.0099C53.4451 31.0696 53.4989 31.1117 53.5618 31.1239C54.2966 31.1239 54.7312 31.5258 54.9914 32.2007L55 33.9254ZM51.6775 19.1738V17.824C51.6775 16.5942 51.6975 15.3644 51.6604 14.1346C51.6232 12.9528 50.8769 12.2359 49.759 12.2359H41.7902C37.181 12.2359 32.5728 12.2359 27.9656 12.2359C27.4896 12.2132 27.03 12.4211 26.719 12.7998C26.3564 13.251 26.165 13.8266 26.1814 14.4165C26.1814 15.9163 26.1814 17.4161 26.1814 18.9338C26.1814 19.0148 26.1814 19.0928 26.2014 19.1828L51.6775 19.1738ZM43.4371 27.9414C43.4042 27.9433 43.372 27.9525 43.3428 27.9684C43.2198 28.0854 43.0997 28.2054 42.9825 28.3253C42.4707 28.8593 42.4735 28.8593 42.9653 29.3992C43.2513 29.7261 43.2741 29.9271 43.0854 30.335C42.8706 30.7937 42.6797 31.2644 42.5136 31.7448C42.3592 32.2277 42.2133 32.3747 41.7187 32.3777C41.0782 32.3777 41.0754 32.3777 41.0811 33.0736C41.0811 33.9045 40.9896 33.7875 41.7616 33.7935C42.2248 33.7935 42.3649 33.9374 42.5107 34.3934C42.6576 34.8578 42.8353 35.3108 43.0425 35.7492C43.2827 36.2561 43.2799 36.4331 42.9024 36.832C42.3963 37.3659 42.4135 37.2249 42.9024 37.7498C43.3914 38.2748 43.4057 38.2808 43.9232 37.7498C44.1331 37.4779 44.5079 37.4229 44.781 37.6239C45.2056 37.8534 45.644 38.0538 46.0934 38.2238C46.6424 38.4157 46.751 38.5237 46.751 39.1236C46.751 39.8195 46.6881 39.7475 47.3486 39.7475C48.0949 39.7475 48.0949 39.7475 48.1063 38.9796C48.1063 38.5477 48.2464 38.3947 48.6353 38.2538C49.1044 38.0981 49.5637 37.9118 50.0106 37.6959C50.4995 37.4439 50.6482 37.4439 51.0428 37.8488C51.5517 38.3737 51.4116 38.3647 51.9206 37.8488C52.4295 37.3329 52.4267 37.3179 51.9206 36.772C51.6346 36.472 51.6346 36.2501 51.8062 35.8721C52.0251 35.4257 52.2161 34.9648 52.378 34.4924C52.5582 33.9314 52.664 33.8235 53.2358 33.8235C53.9163 33.8235 53.8449 33.8775 53.8449 33.1756C53.8449 32.4257 53.8449 32.4257 53.13 32.4047C52.7154 32.4047 52.5582 32.2367 52.4238 31.8048C52.2588 31.3141 52.0679 30.8334 51.8519 30.365C51.6404 29.9151 51.6461 29.7261 51.992 29.3602C52.4495 28.8713 52.4495 28.8713 51.992 28.3943C51.5346 27.9174 51.5002 27.8814 51.0085 28.3943C50.6796 28.7273 50.4909 28.7273 50.0678 28.5143C49.6226 28.2845 49.1643 28.0842 48.6953 27.9144C48.2693 27.7614 48.1235 27.6145 48.1235 27.1165C48.1235 26.4296 48.1235 26.4296 47.4744 26.4296C46.7767 26.4296 46.7767 26.4296 46.7682 27.1525C46.7682 27.6204 46.6281 27.7764 46.1963 27.9204C45.7705 28.0647 45.3549 28.2401 44.9525 28.4453C44.3635 28.7453 44.2577 28.7633 43.7859 28.2713C43.7145 28.1994 43.6487 28.1244 43.5772 28.0554C43.534 28.0129 43.4871 27.9748 43.4371 27.9414Z" fill="white"/>
<path d="M38.2202 27.1105C37.7456 26.5526 37.2996 26.0276 36.8564 25.4997C36.5704 25.1638 36.5704 24.8008 36.8249 24.5489C36.9542 24.4283 37.1266 24.3717 37.2983 24.3935C37.4701 24.4153 37.6246 24.5134 37.7227 24.6629C38.246 25.2628 38.7664 25.8807 39.2782 26.4956C39.4356 26.6545 39.5246 26.8738 39.5246 27.103C39.5246 27.3322 39.4356 27.5515 39.2782 27.7104C38.7521 28.3433 38.2202 28.9672 37.6827 29.5911C37.5524 29.7944 37.3203 29.8984 37.0903 29.8564C36.8602 29.8145 36.6751 29.6346 36.6177 29.3971C36.5604 29.1596 36.6416 28.909 36.8249 28.7572C37.2795 28.2113 37.7428 27.6744 38.2202 27.1105Z" fill="white"/>
<path d="M29.6532 27.1105C30.1078 27.6444 30.5424 28.1543 30.9713 28.6702C31.0736 28.7778 31.1534 28.9065 31.2057 29.0482C31.2941 29.3118 31.1892 29.604 30.957 29.741C30.7162 29.9049 30.397 29.8561 30.2107 29.6271C29.879 29.2521 29.5588 28.8652 29.2328 28.4842C29.0127 28.2233 28.7897 27.9653 28.5752 27.7014C28.2692 27.3775 28.2692 26.8554 28.5752 26.5316C29.107 25.8897 29.6474 25.2568 30.1907 24.6269C30.3272 24.4494 30.5459 24.3652 30.7594 24.4079C30.973 24.4507 31.1468 24.6134 31.2114 24.8311C31.2761 25.0489 31.2211 25.2863 31.0685 25.4487C30.6053 25.9976 30.1507 26.5376 29.6532 27.1105Z" fill="white"/>
<path d="M35.1316 24.498L34.7256 26.3337C34.4711 27.4495 34.2252 28.5654 33.9564 29.6752C33.9007 29.8761 33.7928 30.0568 33.6447 30.1971C33.4615 30.3595 33.1933 30.3595 33.01 30.1971C32.803 30.0614 32.7063 29.7986 32.7727 29.5522C32.9785 28.6284 33.1873 27.7015 33.396 26.7776C33.5704 26.0098 33.7391 25.2419 33.9192 24.48C34.045 23.9521 34.5597 23.7451 34.8971 24.0901C34.9943 24.213 35.0733 24.3505 35.1316 24.498Z" fill="white"/>
<path d="M33.8855 33.7965C34.0427 33.7963 34.1932 33.864 34.3014 33.9837C34.4096 34.1035 34.466 34.2647 34.4573 34.4294C34.447 34.7561 34.1969 35.0185 33.8855 35.0293C33.5518 35.0293 33.2809 34.7465 33.2793 34.3964C33.2838 34.2325 33.3502 34.0772 33.4639 33.9647C33.5776 33.8522 33.7292 33.7917 33.8855 33.7965Z" fill="white"/>
<path d="M45.1895 17.818C44.3031 17.818 43.4139 17.818 42.5246 17.818C41.706 17.793 40.9867 17.2414 40.7153 16.4308C40.444 15.6201 40.6768 14.7179 41.3009 14.1615C41.6575 13.8338 42.1163 13.6545 42.5904 13.6576C44.3288 13.6576 46.0673 13.6576 47.8029 13.6576C48.5292 13.6341 49.2096 14.0288 49.5767 14.6867C49.9438 15.3446 49.9387 16.1603 49.5636 16.8131C49.1884 17.4659 48.5031 17.8514 47.7771 17.818H45.2038H45.1895ZM45.2152 14.8994C44.3574 14.8994 43.4796 14.8994 42.6104 14.8994C42.3254 14.8994 42.0621 15.0589 41.9196 15.3179C41.7771 15.5768 41.7771 15.8958 41.9196 16.1547C42.0621 16.4136 42.3254 16.5732 42.6104 16.5732C44.326 16.5732 46.0416 16.5732 47.7571 16.5732C48.054 16.5918 48.3363 16.4362 48.4902 16.1691C48.644 15.9021 48.644 15.5675 48.4902 15.3004C48.3363 15.0334 48.054 14.8778 47.7571 14.8964C46.9136 14.8994 46.0644 14.8994 45.2152 14.8994Z" fill="white"/>
<path d="M37.6036 15.7274C37.6071 16.5698 37.1256 17.3311 36.3844 17.6551C35.6432 17.9791 34.7888 17.8019 34.221 17.2062C33.6532 16.6106 33.4843 15.7143 33.7932 14.9368C34.102 14.1592 34.8277 13.6541 35.6307 13.6577C36.7177 13.6643 37.5974 14.5871 37.6036 15.7274ZM36.4256 15.7484C36.4279 15.5246 36.3449 15.3091 36.1952 15.1498C36.0454 14.9904 35.8412 14.9003 35.6279 14.8995C35.1958 14.8945 34.8408 15.2562 34.833 15.7094C34.8261 15.9324 34.9043 16.1491 35.0503 16.3113C35.1964 16.4735 35.3981 16.5678 35.6107 16.5733C36.0498 16.5736 36.4102 16.2088 36.4256 15.7484Z" fill="white"/>
<path d="M32.4631 15.7334C32.4631 16.5738 31.9801 17.3312 31.2397 17.6519C30.4993 17.9727 29.6476 17.7934 29.0824 17.1979C28.5172 16.6024 28.35 15.7082 28.659 14.9328C28.968 14.1575 29.6921 13.6541 30.4931 13.6577C31.5825 13.6627 32.4632 14.5905 32.4631 15.7334ZM31.2794 15.7334C31.2755 15.2729 30.9164 14.9029 30.4774 14.907C30.0384 14.9112 29.6857 15.2879 29.6897 15.7484C29.696 16.2131 30.0602 16.5844 30.5031 16.5778C30.9461 16.5711 31.3 16.1891 31.2937 15.7244L31.2794 15.7334Z" fill="white"/>
<path d="M43.8477 33.0825C43.8477 30.9927 45.462 29.2982 47.4542 29.2971C49.4463 29.296 51.0624 30.9887 51.0645 33.0785C51.0666 35.1684 49.4539 36.8646 47.4618 36.8679C46.5031 36.8719 45.5825 36.4746 44.904 35.764C44.2256 35.0534 43.8454 34.0882 43.8477 33.0825ZM45.0314 33.0825C45.0303 34.1127 45.6215 35.0418 46.5289 35.4358C47.4362 35.8297 48.4805 35.6106 49.1736 34.8809C49.8667 34.1512 50.0719 33.0549 49.6931 32.1045C49.3144 31.154 48.4266 30.5371 47.4446 30.5419C46.1129 30.5501 45.0361 31.6824 45.0314 33.0795V33.0825Z" fill="white"/>
<defs>
<filter id="filter0_dddd_223_1446" x="0" y="0" width="66" height="65" filterUnits="userSpaceOnUse" color-interpolation-filters="sRGB">
<feFlood flood-opacity="0" result="BackgroundImageFix"/>
<feColorMatrix in="SourceAlpha" type="matrix" values="0 0 0 0 0 0 0 0 0 0 0 0 0 0 0 0 0 0 127 0" result="hardAlpha"/>
<feOffset dx="-1" dy="1"/>
<feGaussianBlur stdDeviation="1"/>
<feColorMatrix type="matrix" values="0 0 0 0 0 0 0 0 0 0 0 0 0 0 0 0 0 0 0.1 0"/>
<feBlend mode="normal" in2="BackgroundImageFix" result="effect1_dropShadow_223_1446"/>
<feColorMatrix in="SourceAlpha" type="matrix" values="0 0 0 0 0 0 0 0 0 0 0 0 0 0 0 0 0 0 127 0" result="hardAlpha"/>
<feOffset dx="-2" dy="2"/>
<feGaussianBlur stdDeviation="1.5"/>
<feColorMatrix type="matrix" values="0 0 0 0 0 0 0 0 0 0 0 0 0 0 0 0 0 0 0.09 0"/>
<feBlend mode="normal" in2="effect1_dropShadow_223_1446" result="effect2_dropShadow_223_1446"/>
<feColorMatrix in="SourceAlpha" type="matrix" values="0 0 0 0 0 0 0 0 0 0 0 0 0 0 0 0 0 0 127 0" result="hardAlpha"/>
<feOffset dx="-5" dy="5"/>
<feGaussianBlur stdDeviation="2"/>
<feColorMatrix type="matrix" values="0 0 0 0 0 0 0 0 0 0 0 0 0 0 0 0 0 0 0.05 0"/>
<feBlend mode="normal" in2="effect2_dropShadow_223_1446" result="effect3_dropShadow_223_1446"/>
<feColorMatrix in="SourceAlpha" type="matrix" values="0 0 0 0 0 0 0 0 0 0 0 0 0 0 0 0 0 0 127 0" result="hardAlpha"/>
<feOffset dx="-10" dy="9"/>
<feGaussianBlur stdDeviation="2.5"/>
<feColorMatrix type="matrix" values="0 0 0 0 0 0 0 0 0 0 0 0 0 0 0 0 0 0 0.01 0"/>
<feBlend mode="normal" in2="effect3_dropShadow_223_1446" result="effect4_dropShadow_223_1446"/>
<feBlend mode="normal" in="SourceGraphic" in2="effect4_dropShadow_223_1446" result="shape"/>
</filter>
</defs>
</svg>
