<svg width="36" height="36" viewBox="0 0 36 36" fill="none" xmlns="http://www.w3.org/2000/svg">
<circle cx="18" cy="18" r="17.5" stroke="#FE4C1C"/>
<path d="M15.75 16.3125C15.75 15.6913 15.2462 15.1875 14.625 15.1875H14.0625C12.8197 15.1875 11.8125 16.1947 11.8125 17.4375V19.125C11.8125 20.3678 12.8197 21.375 14.0625 21.375H14.625C15.2462 21.375 15.75 20.8712 15.75 20.25V16.3125ZM21.9375 21.375C23.1803 21.375 24.1875 20.3678 24.1875 19.125V17.4375C24.1875 16.1947 23.1803 15.1875 21.9375 15.1875H21.375C20.7538 15.1875 20.25 15.6913 20.25 16.3125V20.25C20.25 20.8712 20.7538 21.375 21.375 21.375H21.9375ZM18 9C12.979 9 9.16102 13.1776 9 18V18.5625C9 18.8733 9.25172 19.125 9.5625 19.125H10.125C10.4358 19.125 10.6875 18.8733 10.6875 18.5625V18C10.6875 13.9679 13.9679 10.6875 18 10.6875C22.0321 10.6875 25.3125 13.9679 25.3125 18H25.3083C25.3111 18.0854 25.3125 23.8261 25.3125 23.8261C25.3125 24.647 24.647 25.3125 23.8261 25.3125H20.25C20.25 24.3805 19.4945 23.625 18.5625 23.625H17.4375C16.5055 23.625 15.75 24.3805 15.75 25.3125C15.75 26.2445 16.5055 27 17.4375 27H23.8261C25.579 27 27 25.579 27 23.8261V18C26.839 13.1776 23.021 9 18 9Z" fill="#FE4C1C"/>
</svg>
