<svg width="31" height="31" viewBox="0 0 31 31" fill="none" xmlns="http://www.w3.org/2000/svg">
<path d="M25.3186 9.65863L25.3186 9.6587L25.3271 9.66151C25.3999 9.68574 25.433 9.71251 25.4447 9.72425C25.4466 9.72619 25.448 9.72777 25.449 9.729C25.4473 9.74541 25.4347 9.80121 25.347 9.88837L23.8378 11.2556C23.1603 11.8575 23.1869 12.8339 23.7052 13.4566L23.7113 13.4639L23.7176 13.4709L25.1058 15.0162C25.1576 15.0799 25.1811 15.1313 25.1908 15.1646C25.1957 15.1816 25.197 15.1935 25.1972 15.2007C25.1974 15.2077 25.1966 15.2109 25.1964 15.2114L25.1962 15.2119C25.1959 15.2123 25.1941 15.2153 25.1884 15.2203C25.1771 15.2303 25.1452 15.2529 25.0766 15.27L25.075 15.2704L23.1477 15.7582C23.1474 15.7582 23.1472 15.7583 23.1469 15.7584C22.3208 15.965 21.8552 16.8371 22.0896 17.665C22.0898 17.6657 22.09 17.6664 22.0902 17.6671L22.6622 19.7438C22.6624 19.7446 22.6626 19.7453 22.6628 19.746C22.6889 19.8455 22.6903 19.9101 22.6866 19.9452C22.6636 19.946 22.6268 19.9437 22.5743 19.9311L20.6522 19.4004L20.6522 19.4002L20.6402 19.3972C19.803 19.1883 19.0156 19.7536 18.84 20.5768L18.8399 20.5768L18.838 20.5866L18.4276 22.7168L18.4248 22.7312L18.4229 22.7459C18.4157 22.8003 18.4052 22.8399 18.3954 22.8676C18.3763 22.8548 18.3525 22.8362 18.3248 22.8094C18.3243 22.809 18.3238 22.8085 18.3234 22.8081L16.8492 21.3468L16.8492 21.3468L16.8459 21.3436C16.2111 20.7257 15.2463 20.8154 14.7031 21.5333L14.7027 21.5339L13.4305 23.2203L13.4223 23.2311L13.4147 23.2424C13.399 23.2658 13.3847 23.2842 13.3722 23.2985C13.3554 23.2711 13.3359 23.2323 13.3167 23.1789L12.624 21.152C12.372 20.2949 11.4868 19.8851 10.6828 20.2195L10.6749 20.2228L10.6671 20.2263L8.82906 21.0655C8.77072 21.0892 8.72868 21.0978 8.70221 21.1006C8.69588 21.0683 8.69138 21.0114 8.7029 20.9242L8.70295 20.9242L8.70376 20.9173L8.94963 18.8346C9.05894 17.9933 8.54929 17.1489 7.63309 17.0764L5.62463 16.8991L5.62212 16.8989C5.5593 16.8936 5.52593 16.8793 5.51259 16.8718C5.51292 16.8494 5.52194 16.7939 5.58517 16.6999L5.58523 16.6999L5.59 16.6925L6.73911 14.9174L6.74996 14.9006L6.75944 14.883C7.13008 14.196 7.07904 13.2133 6.30773 12.7195L4.63763 11.5743C4.52759 11.4939 4.5051 11.4381 4.50082 11.4211C4.50715 11.4063 4.53319 11.3647 4.62832 11.3133L4.62833 11.3133L4.63257 11.311L6.39546 10.3357C7.13554 9.93372 7.41901 8.96418 7.00679 8.19733L6.02274 6.33513L6.02276 6.33513L6.02072 6.33136C5.97449 6.24565 5.95807 6.18488 5.95337 6.14996C5.9758 6.14377 6.0128 6.13717 6.06833 6.1368L8.06066 6.18077C8.97264 6.24215 9.62188 5.46186 9.56844 4.59081L9.487 2.433C9.48767 2.34978 9.49813 2.2943 9.50831 2.26079C9.53108 2.26718 9.56342 2.27918 9.60545 2.30146L11.3632 3.31813L11.3694 3.32172L11.3757 3.32514C12.1545 3.7462 13.0294 3.36649 13.3806 2.60699L13.3807 2.60702L13.3842 2.59904L14.246 0.646372L14.2461 0.646388L14.2485 0.640758C14.2664 0.598783 14.2835 0.567174 14.2984 0.543799C14.3116 0.560502 14.3266 0.581985 14.3426 0.609313L14.3425 0.6094L14.3494 0.620483L15.456 2.39327C15.4563 2.3937 15.4565 2.39412 15.4568 2.39455C15.9427 3.18123 16.9012 3.32878 17.5861 2.79016L17.5861 2.79019L17.5903 2.7868L19.1884 1.50175C19.2342 1.46599 19.27 1.44748 19.2938 1.43816C19.3046 1.46558 19.3176 1.51301 19.3225 1.5869L19.3233 1.59858L19.3246 1.61021L19.5696 3.77419C19.636 4.67226 20.4254 5.29216 21.2578 5.15368L21.2578 5.15372L21.2644 5.15253L23.2305 4.79819C23.276 4.79084 23.3077 4.79109 23.3276 4.79307C23.3289 4.82619 23.3232 4.88719 23.2911 4.97832L22.5536 6.9722L22.5535 6.97219L22.5514 6.97811C22.2739 7.75838 22.5828 8.70778 23.4346 8.99427L25.3186 9.65863ZM5.51349 16.8835C5.51347 16.8835 5.51336 16.8832 5.51323 16.8824L5.51349 16.8835ZM4.49989 11.4157C4.49992 11.4157 4.50001 11.4163 4.50004 11.4174L4.49989 11.4157ZM4.49967 11.4241C4.49941 11.4261 4.4991 11.427 4.499 11.427C4.49891 11.427 4.49905 11.426 4.49967 11.4241Z" stroke="#FE4C1C"/>
<path d="M23.3006 21.6514L23.3006 21.6516L23.3126 21.6546C23.6995 21.7511 24.1294 21.6929 24.4178 21.3686C24.6978 21.0536 24.7224 20.6231 24.6129 20.236L24.5435 19.9843L29.0009 25.3197L26.0844 25.4183L25.6513 25.4329L25.6042 25.8636L25.2806 28.822L20.5198 23.1143L20.8051 21.5334C20.8775 21.2098 21.1516 21.0671 21.3789 21.1209L23.3006 21.6514Z" stroke="#FE4C1C"/>
<path d="M8.7693 22.785L8.77719 22.7817L8.78496 22.7782L10.6295 21.936C10.6298 21.9359 10.63 21.9357 10.6303 21.9356C10.7772 21.8699 10.986 21.9013 11.1278 22.0857L4.40672 28.6268L4.31648 25.5041L4.30413 25.0769L3.88012 25.0226L1.08407 24.665L7.02542 18.8173L7.06125 18.8229C7.33595 18.8698 7.55259 19.1172 7.50704 19.462L7.50698 19.462L7.50604 19.47L7.25981 21.6002L7.25839 21.6124L7.25759 21.6247C7.23265 22.0023 7.30755 22.4282 7.63649 22.695C7.98322 22.9762 8.41944 22.9305 8.7693 22.785Z" stroke="#FE4C1C"/>
<path d="M15 8.97082L15.6127 10.8566L15.6801 11.0639H15.8981H17.8809L16.2767 12.2294L16.1004 12.3575L16.1678 12.5648L16.7805 14.4507L15.1763 13.2852L15 13.157L14.8237 13.2852L13.2195 14.4507L13.8322 12.5648L13.8996 12.3575L13.7233 12.2294L12.1191 11.0639H14.1019H14.3199L14.3873 10.8566L15 8.97082Z" stroke="#FE4C1C" stroke-width="0.6"/>
</svg>
