<svg width="47" height="47" viewBox="0 0 47 47" fill="none" xmlns="http://www.w3.org/2000/svg">
<g filter="url(#filter0_dddd_223_1692)">
<path d="M37 19C37 28.9411 28.9411 37 19 37C9.05887 37 1 28.9411 1 19C1 9.05887 9.05887 1 19 1C28.9411 1 37 9.05887 37 19Z" fill="#0160E7"/>
<path d="M19 13.4159C20.808 13.4159 21.032 13.4159 21.752 13.4479C22.408 13.4799 22.776 13.5919 23.016 13.6879C23.336 13.8159 23.56 13.9599 23.8 14.1999C24.04 14.4399 24.184 14.6639 24.312 14.9839C24.408 15.2239 24.52 15.5759 24.552 16.2479C24.584 16.9679 24.584 17.1759 24.584 18.9999C24.584 20.8239 24.584 21.0319 24.552 21.7519C24.52 22.4079 24.408 22.7759 24.312 23.0159C24.184 23.3359 24.04 23.5599 23.8 23.7999C23.56 24.0399 23.336 24.1839 23.016 24.3119C22.776 24.4079 22.424 24.5199 21.752 24.5519C21.032 24.5839 20.824 24.5839 19 24.5839C17.192 24.5839 16.968 24.5839 16.248 24.5519C15.592 24.5199 15.224 24.4079 14.984 24.3119C14.664 24.1839 14.44 24.0399 14.2 23.7999C13.96 23.5599 13.816 23.3359 13.688 23.0159C13.592 22.7759 13.48 22.4239 13.448 21.7519C13.416 21.0319 13.416 20.8239 13.416 18.9999C13.416 17.1759 13.416 16.9679 13.448 16.2479C13.48 15.5919 13.592 15.2239 13.688 14.9839C13.816 14.6639 13.96 14.4399 14.2 14.1999C14.44 13.9599 14.664 13.8159 14.984 13.6879C15.224 13.5919 15.576 13.4799 16.248 13.4479C16.968 13.4319 17.176 13.4159 19 13.4159ZM19 12.1999C17.16 12.1999 16.92 12.1999 16.2 12.2479C15.48 12.2799 14.984 12.3919 14.552 12.5679C14.104 12.7439 13.72 12.9679 13.352 13.3519C12.968 13.7359 12.744 14.1039 12.568 14.5519C12.392 14.9839 12.28 15.4799 12.248 16.1999C12.216 16.9199 12.2 17.1599 12.2 18.9999C12.2 20.8399 12.2 21.0799 12.248 21.7999C12.28 22.5199 12.392 23.0159 12.568 23.4479C12.744 23.8959 12.968 24.2799 13.352 24.6479C13.736 25.0319 14.104 25.2559 14.552 25.4319C14.984 25.6079 15.48 25.7199 16.2 25.7519C16.92 25.7839 17.16 25.7999 19 25.7999C20.84 25.7999 21.08 25.7999 21.8 25.7519C22.52 25.7199 23.016 25.6079 23.448 25.4319C23.896 25.2559 24.28 25.0319 24.648 24.6479C25.032 24.2639 25.256 23.8959 25.432 23.4479C25.608 23.0159 25.72 22.5199 25.752 21.7999C25.784 21.0799 25.8 20.8399 25.8 18.9999C25.8 17.1599 25.8 16.9199 25.752 16.1999C25.72 15.4799 25.608 14.9839 25.432 14.5519C25.256 14.1039 25.032 13.7199 24.648 13.3519C24.264 12.9679 23.896 12.7439 23.448 12.5679C23.016 12.3919 22.52 12.2799 21.8 12.2479C21.064 12.1999 20.84 12.1999 19 12.1999Z" fill="white"/>
<path d="M19 15.5119C17.064 15.5119 15.512 17.0799 15.512 18.9999C15.512 20.9199 17.064 22.4879 19 22.4879C20.936 22.4879 22.488 20.9199 22.488 18.9999C22.488 17.0799 20.92 15.5119 19 15.5119ZM19 21.2719C17.752 21.2719 16.728 20.2639 16.728 18.9999C16.728 17.7359 17.736 16.7279 19 16.7279C20.264 16.7279 21.272 17.7359 21.272 18.9999C21.272 20.2639 20.248 21.2719 19 21.2719Z" fill="white"/>
<path d="M22.616 16.1838C23.0667 16.1838 23.432 15.8184 23.432 15.3678C23.432 14.9171 23.0667 14.5518 22.616 14.5518C22.1654 14.5518 21.8 14.9171 21.8 15.3678C21.8 15.8184 22.1654 16.1838 22.616 16.1838Z" fill="white"/>
</g>
<defs>
<filter id="filter0_dddd_223_1692" x="0" y="0" width="47" height="47" filterUnits="userSpaceOnUse" color-interpolation-filters="sRGB">
<feFlood flood-opacity="0" result="BackgroundImageFix"/>
<feColorMatrix in="SourceAlpha" type="matrix" values="0 0 0 0 0 0 0 0 0 0 0 0 0 0 0 0 0 0 127 0" result="hardAlpha"/>
<feOffset/>
<feGaussianBlur stdDeviation="0.5"/>
<feColorMatrix type="matrix" values="0 0 0 0 0.996078 0 0 0 0 0.67451 0 0 0 0 0.576471 0 0 0 0.07 0"/>
<feBlend mode="normal" in2="BackgroundImageFix" result="effect1_dropShadow_223_1692"/>
<feColorMatrix in="SourceAlpha" type="matrix" values="0 0 0 0 0 0 0 0 0 0 0 0 0 0 0 0 0 0 127 0" result="hardAlpha"/>
<feOffset dx="2" dy="2"/>
<feGaussianBlur stdDeviation="1"/>
<feColorMatrix type="matrix" values="0 0 0 0 0.996078 0 0 0 0 0.67451 0 0 0 0 0.576471 0 0 0 0.06 0"/>
<feBlend mode="normal" in2="effect1_dropShadow_223_1692" result="effect2_dropShadow_223_1692"/>
<feColorMatrix in="SourceAlpha" type="matrix" values="0 0 0 0 0 0 0 0 0 0 0 0 0 0 0 0 0 0 127 0" result="hardAlpha"/>
<feOffset dx="4" dy="4"/>
<feGaussianBlur stdDeviation="1.5"/>
<feColorMatrix type="matrix" values="0 0 0 0 0.996078 0 0 0 0 0.67451 0 0 0 0 0.576471 0 0 0 0.04 0"/>
<feBlend mode="normal" in2="effect2_dropShadow_223_1692" result="effect3_dropShadow_223_1692"/>
<feColorMatrix in="SourceAlpha" type="matrix" values="0 0 0 0 0 0 0 0 0 0 0 0 0 0 0 0 0 0 127 0" result="hardAlpha"/>
<feOffset dx="6" dy="6"/>
<feGaussianBlur stdDeviation="2"/>
<feColorMatrix type="matrix" values="0 0 0 0 0.996078 0 0 0 0 0.67451 0 0 0 0 0.576471 0 0 0 0.01 0"/>
<feBlend mode="normal" in2="effect3_dropShadow_223_1692" result="effect4_dropShadow_223_1692"/>
<feBlend mode="normal" in="SourceGraphic" in2="effect4_dropShadow_223_1692" result="shape"/>
</filter>
</defs>
</svg>
