<svg width="71" height="71" viewBox="0 0 71 71" fill="none" xmlns="http://www.w3.org/2000/svg">
<circle cx="35.5" cy="35.47" r="35" fill="white"/>
<path d="M35.25 17.47C28.2112 17.47 22.5 22.6539 22.5 29.0415C22.5 39.3272 35.25 53.47 35.25 53.47C35.25 53.47 48 39.3272 48 29.0415C48 22.6539 42.2888 17.47 35.25 17.47ZM35.25 35.47C34.2413 35.47 33.2553 35.1684 32.4166 34.6033C31.5779 34.0382 30.9242 33.235 30.5382 32.2953C30.1522 31.3555 30.0512 30.3215 30.248 29.3239C30.4448 28.3262 30.9305 27.4099 31.6438 26.6906C32.357 25.9714 33.2657 25.4816 34.255 25.2831C35.2443 25.0847 36.2698 25.1865 37.2017 25.5758C38.1336 25.965 38.9301 26.6242 39.4905 27.47C40.0509 28.3157 40.35 29.31 40.35 30.3272C40.3485 31.6907 39.8107 32.9979 38.8546 33.9621C37.8985 34.9262 36.6021 35.4685 35.25 35.47Z" fill="#FE4C1C"/>
</svg>
