<svg width="36" height="36" viewBox="0 0 36 36" fill="none" xmlns="http://www.w3.org/2000/svg">
<circle cx="18" cy="18" r="17.5" stroke="#FE4C1C"/>
<path d="M28.8007 9.0079C28.6985 8.99737 28.5954 8.99737 28.4932 9.0079H7.4932C7.35861 9.00997 7.22491 9.03014 7.0957 9.06787L17.9332 19.8556L28.8007 9.0079Z" fill="#FE4C1C"/>
<path d="M29.91 10.05L18.99 20.9202C18.709 21.1994 18.3288 21.3562 17.9325 21.3562C17.5362 21.3562 17.156 21.1994 16.875 20.9202L6.0525 10.1324C6.01923 10.2547 6.00159 10.3806 6 10.5073V25.5007C6 25.8983 6.15804 26.2797 6.43934 26.5609C6.72064 26.842 7.10218 27 7.5 27H28.5C28.8978 27 29.2794 26.842 29.5607 26.5609C29.842 26.2797 30 25.8983 30 25.5007V10.5073C29.994 10.3511 29.9637 10.1968 29.91 10.05ZM8.5275 25.5007H7.485V24.4286L12.9375 19.0235L13.995 20.0805L8.5275 25.5007ZM28.485 25.5007H27.435L21.9675 20.0805L23.025 19.0235L28.4775 24.4286L28.485 25.5007Z" fill="#FE4C1C"/>
</svg>
