<svg width="70" height="71" viewBox="0 0 70 71" fill="none" xmlns="http://www.w3.org/2000/svg">
<ellipse cx="35" cy="35.497" rx="35" ry="35.1581" fill="#FE4C1C"/>
<path d="M56.6014 17.4316C56.3969 17.4104 56.1909 17.4104 55.9864 17.4316H13.9864C13.7172 17.4358 13.4498 17.4763 13.1914 17.5521L34.8664 39.2251L56.6014 17.4316Z" fill="white"/>
<path d="M58.82 19.5251L36.98 41.3638C36.4179 41.9248 35.6576 42.2397 34.865 42.2397C34.0724 42.2397 33.3121 41.9248 32.75 41.3638L11.105 19.6908C11.0385 19.9364 11.0032 20.1894 11 20.4439V50.5662C11 51.3651 11.3161 52.1312 11.8787 52.6961C12.4413 53.261 13.2044 53.5784 14 53.5784H56C56.7957 53.5784 57.5587 53.261 58.1213 52.6961C58.6839 52.1312 59 51.3651 59 50.5662V20.4439C58.9881 20.1301 58.9273 19.8201 58.82 19.5251ZM16.055 50.5662H13.97V48.4124L24.875 37.5533L26.99 39.677L16.055 50.5662ZM55.97 50.5662H53.87L42.935 39.677L45.05 37.5533L55.955 48.4124L55.97 50.5662Z" fill="white"/>
</svg>
