<svg width="24" height="18" viewBox="0 0 24 18" fill="none" xmlns="http://www.w3.org/2000/svg">
<path d="M22.8007 0.00789701C22.6985 -0.00263234 22.5954 -0.00263234 22.4932 0.00789701H1.4932C1.35861 0.00996995 1.22491 0.0301422 1.0957 0.0678705L11.9332 10.8556L22.8007 0.00789701Z" fill="#FE4C1C"/>
<path d="M23.91 1.04997L12.99 11.9202C12.709 12.1994 12.3288 12.3562 11.9325 12.3562C11.5362 12.3562 11.156 12.1994 10.875 11.9202L0.0525 1.13243C0.0192296 1.25466 0.00158901 1.38061 0 1.50727V16.5007C0 16.8983 0.158035 17.2797 0.43934 17.5609C0.720644 17.842 1.10218 18 1.5 18H22.5C22.8978 18 23.2794 17.842 23.5607 17.5609C23.842 17.2797 24 16.8983 24 16.5007V1.50727C23.994 1.35108 23.9637 1.19678 23.91 1.04997ZM2.5275 16.5007H1.485V15.4286L6.9375 10.0235L7.995 11.0805L2.5275 16.5007ZM22.485 16.5007H21.435L15.9675 11.0805L17.025 10.0235L22.4775 15.4286L22.485 16.5007Z" fill="#FE4C1C"/>
</svg>
