<svg width="46" height="47" viewBox="0 0 46 47" fill="none" xmlns="http://www.w3.org/2000/svg">
<g filter="url(#filter0_dddd_223_1820)">
<path d="M37 19.7598C37 29.7009 28.9411 37.7598 19 37.7598C9.05887 37.7598 1 29.7009 1 19.7598C1 9.81864 9.05887 1.75977 19 1.75977C28.9411 1.75977 37 9.81864 37 19.7598Z" fill="#0160E7"/>
<path d="M19 14.1757C20.808 14.1757 21.032 14.1757 21.752 14.2077C22.408 14.2397 22.776 14.3517 23.016 14.4477C23.336 14.5757 23.56 14.7197 23.8 14.9597C24.04 15.1997 24.184 15.4237 24.312 15.7437C24.408 15.9837 24.52 16.3357 24.552 17.0077C24.584 17.7277 24.584 17.9357 24.584 19.7597C24.584 21.5837 24.584 21.7917 24.552 22.5117C24.52 23.1677 24.408 23.5357 24.312 23.7757C24.184 24.0957 24.04 24.3197 23.8 24.5597C23.56 24.7997 23.336 24.9437 23.016 25.0717C22.776 25.1677 22.424 25.2797 21.752 25.3117C21.032 25.3437 20.824 25.3437 19 25.3437C17.192 25.3437 16.968 25.3437 16.248 25.3117C15.592 25.2797 15.224 25.1677 14.984 25.0717C14.664 24.9437 14.44 24.7997 14.2 24.5597C13.96 24.3197 13.816 24.0957 13.688 23.7757C13.592 23.5357 13.48 23.1837 13.448 22.5117C13.416 21.7917 13.416 21.5837 13.416 19.7597C13.416 17.9357 13.416 17.7277 13.448 17.0077C13.48 16.3517 13.592 15.9837 13.688 15.7437C13.816 15.4237 13.96 15.1997 14.2 14.9597C14.44 14.7197 14.664 14.5757 14.984 14.4477C15.224 14.3517 15.576 14.2397 16.248 14.2077C16.968 14.1917 17.176 14.1757 19 14.1757ZM19 12.9597C17.16 12.9597 16.92 12.9597 16.2 13.0077C15.48 13.0397 14.984 13.1517 14.552 13.3277C14.104 13.5037 13.72 13.7277 13.352 14.1117C12.968 14.4957 12.744 14.8637 12.568 15.3117C12.392 15.7437 12.28 16.2397 12.248 16.9597C12.216 17.6797 12.2 17.9197 12.2 19.7597C12.2 21.5997 12.2 21.8397 12.248 22.5597C12.28 23.2797 12.392 23.7757 12.568 24.2077C12.744 24.6557 12.968 25.0397 13.352 25.4077C13.736 25.7917 14.104 26.0157 14.552 26.1917C14.984 26.3677 15.48 26.4797 16.2 26.5117C16.92 26.5437 17.16 26.5597 19 26.5597C20.84 26.5597 21.08 26.5597 21.8 26.5117C22.52 26.4797 23.016 26.3677 23.448 26.1917C23.896 26.0157 24.28 25.7917 24.648 25.4077C25.032 25.0237 25.256 24.6557 25.432 24.2077C25.608 23.7757 25.72 23.2797 25.752 22.5597C25.784 21.8397 25.8 21.5997 25.8 19.7597C25.8 17.9197 25.8 17.6797 25.752 16.9597C25.72 16.2397 25.608 15.7437 25.432 15.3117C25.256 14.8637 25.032 14.4797 24.648 14.1117C24.264 13.7277 23.896 13.5037 23.448 13.3277C23.016 13.1517 22.52 13.0397 21.8 13.0077C21.064 12.9597 20.84 12.9597 19 12.9597Z" fill="white"/>
<path d="M19 16.2717C17.064 16.2717 15.512 17.8396 15.512 19.7596C15.512 21.6796 17.064 23.2477 19 23.2477C20.936 23.2477 22.488 21.6796 22.488 19.7596C22.488 17.8396 20.92 16.2717 19 16.2717ZM19 22.0317C17.752 22.0317 16.728 21.0236 16.728 19.7596C16.728 18.4956 17.736 17.4876 19 17.4876C20.264 17.4876 21.272 18.4956 21.272 19.7596C21.272 21.0236 20.248 22.0317 19 22.0317Z" fill="white"/>
<path d="M22.616 16.9435C23.0667 16.9435 23.432 16.5782 23.432 16.1275C23.432 15.6769 23.0667 15.3115 22.616 15.3115C22.1654 15.3115 21.8 15.6769 21.8 16.1275C21.8 16.5782 22.1654 16.9435 22.616 16.9435Z" fill="white"/>
</g>
<defs>
<filter id="filter0_dddd_223_1820" x="0" y="0.759766" width="46" height="46" filterUnits="userSpaceOnUse" color-interpolation-filters="sRGB">
<feFlood flood-opacity="0" result="BackgroundImageFix"/>
<feColorMatrix in="SourceAlpha" type="matrix" values="0 0 0 0 0 0 0 0 0 0 0 0 0 0 0 0 0 0 127 0" result="hardAlpha"/>
<feOffset/>
<feGaussianBlur stdDeviation="0.5"/>
<feColorMatrix type="matrix" values="0 0 0 0 0.105882 0 0 0 0 0.337255 0 0 0 0 0.811765 0 0 0 0.07 0"/>
<feBlend mode="normal" in2="BackgroundImageFix" result="effect1_dropShadow_223_1820"/>
<feColorMatrix in="SourceAlpha" type="matrix" values="0 0 0 0 0 0 0 0 0 0 0 0 0 0 0 0 0 0 127 0" result="hardAlpha"/>
<feOffset dx="1" dy="1"/>
<feGaussianBlur stdDeviation="1"/>
<feColorMatrix type="matrix" values="0 0 0 0 0.105882 0 0 0 0 0.337255 0 0 0 0 0.811765 0 0 0 0.06 0"/>
<feBlend mode="normal" in2="effect1_dropShadow_223_1820" result="effect2_dropShadow_223_1820"/>
<feColorMatrix in="SourceAlpha" type="matrix" values="0 0 0 0 0 0 0 0 0 0 0 0 0 0 0 0 0 0 127 0" result="hardAlpha"/>
<feOffset dx="3" dy="3"/>
<feGaussianBlur stdDeviation="1.5"/>
<feColorMatrix type="matrix" values="0 0 0 0 0.105882 0 0 0 0 0.337255 0 0 0 0 0.811765 0 0 0 0.04 0"/>
<feBlend mode="normal" in2="effect2_dropShadow_223_1820" result="effect3_dropShadow_223_1820"/>
<feColorMatrix in="SourceAlpha" type="matrix" values="0 0 0 0 0 0 0 0 0 0 0 0 0 0 0 0 0 0 127 0" result="hardAlpha"/>
<feOffset dx="6" dy="6"/>
<feGaussianBlur stdDeviation="1.5"/>
<feColorMatrix type="matrix" values="0 0 0 0 0.105882 0 0 0 0 0.337255 0 0 0 0 0.811765 0 0 0 0.01 0"/>
<feBlend mode="normal" in2="effect3_dropShadow_223_1820" result="effect4_dropShadow_223_1820"/>
<feBlend mode="normal" in="SourceGraphic" in2="effect4_dropShadow_223_1820" result="shape"/>
</filter>
</defs>
</svg>
