<svg width="32" height="24" viewBox="0 0 32 24" fill="none" xmlns="http://www.w3.org/2000/svg">
<path d="M30.4009 0.0105294C30.2646 -0.00350978 30.1272 -0.00350978 29.9909 0.0105294H1.99094C1.81148 0.0132933 1.63321 0.0401896 1.46094 0.090494L15.9109 14.4742L30.4009 0.0105294Z" fill="#0160E7"/>
<path d="M31.88 1.39996L17.32 15.8936C16.9453 16.2659 16.4384 16.4749 15.91 16.4749C15.3816 16.4749 14.8747 16.2659 14.5 15.8936L0.0700001 1.50991C0.0256394 1.67288 0.00211869 1.84081 0 2.00969V22.0009C0 22.5311 0.210714 23.0396 0.585786 23.4145C0.960859 23.7894 1.46957 24 2 24H30C30.5304 24 31.0391 23.7894 31.4142 23.4145C31.7893 23.0396 32 22.5311 32 22.0009V2.00969C31.992 1.80143 31.9516 1.59571 31.88 1.39996ZM3.37 22.0009H1.98V20.5715L9.25 13.3647L10.66 14.7741L3.37 22.0009ZM29.98 22.0009H28.58L21.29 14.7741L22.7 13.3647L29.97 20.5715L29.98 22.0009Z" fill="#0160E7"/>
</svg>
