<svg width="16" height="24" viewBox="0 0 16 24" fill="none" xmlns="http://www.w3.org/2000/svg">
<path opacity="0.2" d="M2.18133 0H13.8187C15.0227 0 16 0.848842 16 1.89474V22.1053C16 23.1512 15.0227 24 13.8187 24H2.18133C0.977334 24 0 23.1512 0 22.1053V1.89474C0 0.848842 0.977334 0 2.18133 0Z" fill="#FE4C1C"/>
<path fill-rule="evenodd" clip-rule="evenodd" d="M14 0H2C1.46957 0 0.960859 0.199623 0.585786 0.554956C0.210713 0.910288 0 1.39222 0 1.89474V22.1053C0 22.6078 0.210713 23.0897 0.585786 23.445C0.960859 23.8004 1.46957 24 2 24H14C14.5304 24 15.0391 23.8004 15.4142 23.445C15.7893 23.0897 16 22.6078 16 22.1053V1.89474C16 1.39222 15.7893 0.910288 15.4142 0.554956C15.0391 0.199623 14.5304 0 14 0ZM1.33333 1.89474C1.33333 1.72723 1.40357 1.56659 1.5286 1.44814C1.65362 1.3297 1.82319 1.26316 2 1.26316H14C14.1768 1.26316 14.3464 1.3297 14.4714 1.44814C14.5964 1.56659 14.6667 1.72723 14.6667 1.89474V22.1053C14.6667 22.2728 14.5964 22.4334 14.4714 22.5519C14.3464 22.6703 14.1768 22.7368 14 22.7368H2C1.82319 22.7368 1.65362 22.6703 1.5286 22.5519C1.40357 22.4334 1.33333 22.2728 1.33333 22.1053V1.89474Z" fill="#FE4C1C"/>
<path d="M7.9974 22.1035C7.64377 22.1035 7.30464 21.9704 7.05459 21.7335C6.80454 21.4966 6.66406 21.1753 6.66406 20.8403C6.66406 20.5053 6.80454 20.184 7.05459 19.9471C7.30464 19.7102 7.64377 19.5771 7.9974 19.5771C8.35102 19.5771 8.69016 19.7102 8.9402 19.9471C9.19025 20.184 9.33073 20.5053 9.33073 20.8403C9.33073 21.1753 9.19025 21.4966 8.9402 21.7335C8.69016 21.9704 8.35102 22.1035 7.9974 22.1035Z" fill="#FE4C1C"/>
</svg>
