<svg width="67" height="65" viewBox="0 0 67 65" fill="none" xmlns="http://www.w3.org/2000/svg">
<g filter="url(#filter0_dddd_223_1363)">
<circle cx="40.5" cy="26" r="25" fill="#0160E7"/>
</g>
<path d="M55.4881 14.9036L55.4643 14.8739C55.2362 13.6532 54.137 12.7912 52.8962 12.8601H49.475V12.7116C49.4691 11.6275 48.8449 11.0007 47.763 11.0007H43.239H36.0103C35.7437 10.9899 35.4864 11.0989 35.3088 11.2978C35.1899 11.4225 32.0689 14.565 31.8608 14.7432C31.6493 14.9307 31.5336 15.2035 31.5458 15.4858C31.5458 19.8847 31.5458 32.8794 31.5458 32.8794H32.7852V15.9491H35.7576C36.2748 15.9491 36.4947 15.7264 36.4947 15.2036C36.4947 14.6808 36.4947 12.2334 36.4947 12.2334H47.7303C48.1821 12.2334 48.2504 12.3017 48.2504 12.7502V32.4814H49.4958V14.0898C49.8228 14.0898 52.6198 14.0898 53.134 14.0898C53.754 14.1266 54.2477 14.6225 54.2813 15.2422C54.2813 15.3016 54.2813 32.324 54.2813 32.324H26.7276C26.7276 32.324 26.7276 19.849 26.7276 15.3432C26.7209 15.0051 26.8532 14.6791 27.0936 14.4411C27.334 14.2031 27.6615 14.074 27.9998 14.0838H30.2231V12.8601H28.1246C26.5552 12.8631 25.5 13.9145 25.5 15.4739V34.6734C25.5 36.2476 26.5552 37.2872 28.1246 37.2872H34.5984V37.3229C34.5627 37.4773 34.527 37.6199 34.5003 37.7654C34.4812 37.9183 34.3796 38.0484 34.2358 38.104C33.7262 38.3439 33.4017 38.857 33.4035 39.4198C33.4035 39.5327 33.4035 39.6456 33.4035 39.7614C33.411 39.896 33.411 40.0308 33.4035 40.1654C33.3576 40.4814 33.4975 40.7957 33.7632 40.9733L33.7988 41H46.3065L46.3451 40.9733C46.608 40.795 46.7464 40.4827 46.7018 40.1683C46.7018 40.0376 46.7018 39.907 46.7018 39.7703C46.7018 39.6337 46.7018 39.5357 46.7018 39.4198C46.7033 38.8474 46.368 38.3275 45.8458 38.0921C45.7116 38.0399 45.6177 37.9174 45.602 37.7743C45.5723 37.6258 45.5367 37.4773 45.498 37.3199V37.2872H52.816C54.2397 37.2872 55.0809 36.6486 55.4643 35.2734L55.5 35.2289V14.9393L55.4881 14.9036ZM35.2374 14.7016H33.784L35.2374 13.2522V14.7016ZM45.4564 39.7555H34.6192C34.6192 39.6575 34.6192 39.5624 34.6192 39.4585C34.6118 39.3708 34.6436 39.2843 34.7062 39.2224C34.7687 39.1605 34.8555 39.1294 34.9432 39.1377H35.0413H44.7906C45.0878 39.1377 45.3108 39.1555 45.3851 39.2387C45.4645 39.3986 45.4896 39.58 45.4564 39.7555ZM35.719 37.8991L35.8676 37.305H44.205L44.3566 37.8991H35.719ZM54.2932 33.9903C54.2921 34.408 54.2593 34.825 54.1951 35.2378C54.106 35.7368 53.568 36.0338 53.1102 36.0605H28.0889C27.3161 36.0605 26.7573 35.5793 26.7306 34.8724C26.7306 34.5516 26.7306 34.2338 26.7306 33.8952C26.7306 33.7913 26.7306 33.6843 26.7306 33.5744H54.3081C54.3021 33.7229 54.2992 33.8715 54.2932 33.9903Z" fill="white"/>
<path d="M42.4013 27.1706H41.5096V24.8865H39.64V27.1706H38.7305V21.6341H39.6222V23.9153H41.4918V21.6312H42.4013V27.1706Z" fill="white"/>
<path d="M34.9896 25.3291V27.1707H34.0801C34.0801 27.0786 34.0801 26.9865 34.0801 26.8944V22.252C34.0801 21.7589 34.2257 21.6163 34.7191 21.6163C35.1353 21.6163 35.5514 21.6163 35.9675 21.6163C36.9919 21.6163 37.8223 22.4461 37.8223 23.4698C37.8223 24.4934 36.9919 25.3232 35.9675 25.3232C35.6465 25.3351 35.3404 25.3291 34.9896 25.3291ZM35.0134 24.3994C35.3522 24.3994 35.6614 24.3994 35.9705 24.3994C36.4376 24.382 36.8192 24.021 36.8622 23.5559C36.9114 23.0895 36.5904 22.6649 36.128 22.5846C35.756 22.5578 35.3825 22.5578 35.0104 22.5846L35.0134 24.3994Z" fill="white"/>
<path d="M44.2809 25.3291V27.1677H43.3535V22.2341C43.3535 21.7737 43.5051 21.6193 43.948 21.6163C44.3909 21.6133 44.7802 21.6163 45.1964 21.6163C46.2224 21.6163 47.0541 22.4474 47.0541 23.4727C47.0541 24.498 46.2224 25.3291 45.1964 25.3291H44.2809ZM44.2809 24.3964C44.6405 24.3964 44.9794 24.4172 45.3123 24.3964C45.7531 24.3476 46.0966 23.9919 46.1297 23.5499C46.19 23.1028 45.8984 22.6837 45.4579 22.5846C45.0682 22.5533 44.6766 22.5533 44.2868 22.5846L44.2809 24.3964Z" fill="white"/>
<defs>
<filter id="filter0_dddd_223_1363" x="0.5" y="0" width="66" height="65" filterUnits="userSpaceOnUse" color-interpolation-filters="sRGB">
<feFlood flood-opacity="0" result="BackgroundImageFix"/>
<feColorMatrix in="SourceAlpha" type="matrix" values="0 0 0 0 0 0 0 0 0 0 0 0 0 0 0 0 0 0 127 0" result="hardAlpha"/>
<feOffset dx="-1" dy="1"/>
<feGaussianBlur stdDeviation="1"/>
<feColorMatrix type="matrix" values="0 0 0 0 0 0 0 0 0 0 0 0 0 0 0 0 0 0 0.1 0"/>
<feBlend mode="normal" in2="BackgroundImageFix" result="effect1_dropShadow_223_1363"/>
<feColorMatrix in="SourceAlpha" type="matrix" values="0 0 0 0 0 0 0 0 0 0 0 0 0 0 0 0 0 0 127 0" result="hardAlpha"/>
<feOffset dx="-2" dy="2"/>
<feGaussianBlur stdDeviation="1.5"/>
<feColorMatrix type="matrix" values="0 0 0 0 0 0 0 0 0 0 0 0 0 0 0 0 0 0 0.09 0"/>
<feBlend mode="normal" in2="effect1_dropShadow_223_1363" result="effect2_dropShadow_223_1363"/>
<feColorMatrix in="SourceAlpha" type="matrix" values="0 0 0 0 0 0 0 0 0 0 0 0 0 0 0 0 0 0 127 0" result="hardAlpha"/>
<feOffset dx="-5" dy="5"/>
<feGaussianBlur stdDeviation="2"/>
<feColorMatrix type="matrix" values="0 0 0 0 0 0 0 0 0 0 0 0 0 0 0 0 0 0 0.05 0"/>
<feBlend mode="normal" in2="effect2_dropShadow_223_1363" result="effect3_dropShadow_223_1363"/>
<feColorMatrix in="SourceAlpha" type="matrix" values="0 0 0 0 0 0 0 0 0 0 0 0 0 0 0 0 0 0 127 0" result="hardAlpha"/>
<feOffset dx="-10" dy="9"/>
<feGaussianBlur stdDeviation="2.5"/>
<feColorMatrix type="matrix" values="0 0 0 0 0 0 0 0 0 0 0 0 0 0 0 0 0 0 0.01 0"/>
<feBlend mode="normal" in2="effect3_dropShadow_223_1363" result="effect4_dropShadow_223_1363"/>
<feBlend mode="normal" in="SourceGraphic" in2="effect4_dropShadow_223_1363" result="shape"/>
</filter>
</defs>
</svg>
