<svg width="36" height="37" viewBox="0 0 36 37" fill="none" xmlns="http://www.w3.org/2000/svg">
<path d="M36 18.7598C36 28.7009 27.9411 36.7598 18 36.7598C8.05887 36.7598 0 28.7009 0 18.7598C0 8.81864 8.05887 0.759766 18 0.759766C27.9411 0.759766 36 8.81864 36 18.7598Z" fill="#FE4C1C"/>
<path d="M15.824 24.9838C21.104 24.9838 23.984 20.6158 23.984 16.8238C23.984 16.6958 23.984 16.5838 23.968 16.4558C24.528 16.0558 25.008 15.5438 25.392 14.9678C24.88 15.1918 24.32 15.3518 23.744 15.4158C24.336 15.0638 24.784 14.5038 25.008 13.8318C24.448 14.1678 23.84 14.3918 23.184 14.5358C22.656 13.9758 21.92 13.6238 21.088 13.6238C19.504 13.6238 18.224 14.9038 18.224 16.4878C18.224 16.7118 18.256 16.9358 18.304 17.1438C15.92 17.0318 13.808 15.8798 12.4 14.1518C12.16 14.5678 12.016 15.0638 12.016 15.5918C12.016 16.5838 12.528 17.4638 13.296 17.9758C12.832 17.9598 12.384 17.8318 12 17.6238C12 17.6398 12 17.6398 12 17.6558C12 19.0478 12.992 20.1998 14.304 20.4718C14.064 20.5358 13.808 20.5678 13.552 20.5678C13.36 20.5678 13.184 20.5518 13.008 20.5198C13.376 21.6558 14.432 22.4878 15.68 22.5038C14.704 23.2718 13.456 23.7358 12.112 23.7358C11.888 23.7358 11.648 23.7198 11.424 23.7038C12.688 24.5038 14.192 24.9838 15.824 24.9838Z" fill="white"/>
</svg>
