<svg width="36" height="37" viewBox="0 0 36 37" fill="none" xmlns="http://www.w3.org/2000/svg">
<path d="M36 18.7598C36 28.7009 27.9411 36.7598 18 36.7598C8.05887 36.7598 0 28.7009 0 18.7598C0 8.81864 8.05887 0.759766 18 0.759766C27.9411 0.759766 36 8.81864 36 18.7598Z" fill="#0160E7"/>
<path d="M18 13.1757C19.808 13.1757 20.032 13.1757 20.752 13.2077C21.408 13.2397 21.776 13.3517 22.016 13.4477C22.336 13.5757 22.56 13.7197 22.8 13.9597C23.04 14.1997 23.184 14.4237 23.312 14.7437C23.408 14.9837 23.52 15.3357 23.552 16.0077C23.584 16.7277 23.584 16.9357 23.584 18.7597C23.584 20.5837 23.584 20.7917 23.552 21.5117C23.52 22.1677 23.408 22.5357 23.312 22.7757C23.184 23.0957 23.04 23.3197 22.8 23.5597C22.56 23.7997 22.336 23.9437 22.016 24.0717C21.776 24.1677 21.424 24.2797 20.752 24.3117C20.032 24.3437 19.824 24.3437 18 24.3437C16.192 24.3437 15.968 24.3437 15.248 24.3117C14.592 24.2797 14.224 24.1677 13.984 24.0717C13.664 23.9437 13.44 23.7997 13.2 23.5597C12.96 23.3197 12.816 23.0957 12.688 22.7757C12.592 22.5357 12.48 22.1837 12.448 21.5117C12.416 20.7917 12.416 20.5837 12.416 18.7597C12.416 16.9357 12.416 16.7277 12.448 16.0077C12.48 15.3517 12.592 14.9837 12.688 14.7437C12.816 14.4237 12.96 14.1997 13.2 13.9597C13.44 13.7197 13.664 13.5757 13.984 13.4477C14.224 13.3517 14.576 13.2397 15.248 13.2077C15.968 13.1917 16.176 13.1757 18 13.1757ZM18 11.9597C16.16 11.9597 15.92 11.9597 15.2 12.0077C14.48 12.0397 13.984 12.1517 13.552 12.3277C13.104 12.5037 12.72 12.7277 12.352 13.1117C11.968 13.4957 11.744 13.8637 11.568 14.3117C11.392 14.7437 11.28 15.2397 11.248 15.9597C11.216 16.6797 11.2 16.9197 11.2 18.7597C11.2 20.5997 11.2 20.8397 11.248 21.5597C11.28 22.2797 11.392 22.7757 11.568 23.2077C11.744 23.6557 11.968 24.0397 12.352 24.4077C12.736 24.7917 13.104 25.0157 13.552 25.1917C13.984 25.3677 14.48 25.4797 15.2 25.5117C15.92 25.5437 16.16 25.5597 18 25.5597C19.84 25.5597 20.08 25.5597 20.8 25.5117C21.52 25.4797 22.016 25.3677 22.448 25.1917C22.896 25.0157 23.28 24.7917 23.648 24.4077C24.032 24.0237 24.256 23.6557 24.432 23.2077C24.608 22.7757 24.72 22.2797 24.752 21.5597C24.784 20.8397 24.8 20.5997 24.8 18.7597C24.8 16.9197 24.8 16.6797 24.752 15.9597C24.72 15.2397 24.608 14.7437 24.432 14.3117C24.256 13.8637 24.032 13.4797 23.648 13.1117C23.264 12.7277 22.896 12.5037 22.448 12.3277C22.016 12.1517 21.52 12.0397 20.8 12.0077C20.064 11.9597 19.84 11.9597 18 11.9597Z" fill="white"/>
<path d="M18 15.2717C16.064 15.2717 14.512 16.8396 14.512 18.7596C14.512 20.6796 16.064 22.2477 18 22.2477C19.936 22.2477 21.488 20.6796 21.488 18.7596C21.488 16.8396 19.92 15.2717 18 15.2717ZM18 21.0317C16.752 21.0317 15.728 20.0236 15.728 18.7596C15.728 17.4956 16.736 16.4876 18 16.4876C19.264 16.4876 20.272 17.4956 20.272 18.7596C20.272 20.0236 19.248 21.0317 18 21.0317Z" fill="white"/>
<path d="M21.616 15.9435C22.0667 15.9435 22.432 15.5782 22.432 15.1275C22.432 14.6769 22.0667 14.3115 21.616 14.3115C21.1654 14.3115 20.8 14.6769 20.8 15.1275C20.8 15.5782 21.1654 15.9435 21.616 15.9435Z" fill="white"/>
</svg>
